<svg width="40" height="40" viewBox="0 0 40 40" fill="none" xmlns="http://www.w3.org/2000/svg">
<g id="crystal-ball 1">
<g id="Group 24517083">
<path id="Vector" d="M21.1435 6.32817C21.2052 6.32821 21.2669 6.32824 21.3305 6.32828C22.3259 6.33118 23.2721 6.39859 24.2407 6.64284C24.3045 6.65825 24.3684 6.67366 24.4341 6.68955C25.3499 6.91469 26.2007 7.23313 27.0458 7.64978C27.0981 7.67529 27.1503 7.7008 27.2042 7.72708C28.7421 8.48478 30.1901 9.56639 31.2893 10.8864C31.3431 10.9474 31.3969 11.0084 31.4523 11.0713C33.7992 13.7798 34.7769 17.2713 34.5978 20.812C34.3446 24.2273 32.7534 27.5028 30.2104 29.8025C29.7211 30.2156 29.2099 30.6124 28.6767 30.9672C28.5452 31.056 28.4162 31.1484 28.2894 31.2438C27.6244 31.7102 27.0843 31.7548 26.287 31.7448C26.1627 31.7453 26.0385 31.7461 25.9142 31.7471C25.5793 31.7491 25.2446 31.7475 24.9098 31.7451C24.558 31.7431 24.2062 31.7441 23.8543 31.7446C23.2639 31.745 22.6735 31.743 22.083 31.7397C21.402 31.7359 20.721 31.7356 20.04 31.7373C19.3825 31.7389 18.7251 31.738 18.0677 31.7359C17.7889 31.7351 17.5101 31.7351 17.2313 31.7358C16.9027 31.7365 16.5741 31.735 16.2455 31.7319C16.1255 31.7311 16.0054 31.731 15.8854 31.7318C15.168 31.7355 14.6328 31.6658 14.0274 31.241C13.9827 31.2126 13.9379 31.1841 13.8918 31.1548C11.8499 29.8487 10.2469 28.0644 9.13655 25.9186C9.11406 25.8755 9.09156 25.8324 9.06838 25.7879C7.48565 22.7094 7.27454 18.9954 8.27402 15.7056C8.56392 14.8278 8.91275 13.9602 9.42425 13.188C9.60775 13.4144 9.72962 13.6468 9.85299 13.9103C9.89285 13.9934 9.93272 14.0765 9.9738 14.1622C10.0366 14.2936 10.099 14.4251 10.1603 14.5571C10.22 14.6852 10.2815 14.8125 10.343 14.9397C10.3968 15.0539 10.3968 15.0539 10.4518 15.1704C10.5605 15.3627 10.5605 15.3627 10.7694 15.407C10.8239 15.4105 10.8785 15.414 10.9347 15.4176C11.0383 15.223 11.1416 15.0281 11.2448 14.8332C11.277 14.7729 11.3092 14.7125 11.3423 14.6503C11.522 14.3105 11.6945 13.9688 11.8576 13.6206C11.8912 13.55 11.9248 13.4794 11.9594 13.4066C12.0241 13.2696 12.0876 13.132 12.1496 12.9938C12.1798 12.9305 12.21 12.8672 12.2411 12.8019C12.2667 12.7462 12.2922 12.6905 12.3185 12.6331C12.6277 12.2315 13.16 12.0313 13.6091 11.8192C13.7184 11.7663 13.8276 11.7134 13.9368 11.6604C14.1067 11.5784 14.2767 11.4968 14.4473 11.4162C14.6135 11.3374 14.7789 11.257 14.9442 11.1763C14.9955 11.1526 15.0468 11.1288 15.0997 11.1043C15.3888 10.9637 15.3888 10.9637 15.5345 10.6885C15.5356 10.6351 15.5367 10.5817 15.5378 10.5268C15.4853 10.4992 15.4853 10.4992 15.4318 10.471C14.6033 10.0354 13.7755 9.59858 12.9486 9.1602C14.9096 7.08697 18.4112 6.32164 21.1435 6.32817ZM18.1271 9.87944C17.8921 10.1274 17.7585 10.4648 17.6357 10.7796C17.2333 11.7741 16.6586 12.1163 15.6884 12.5297C15.6214 12.5564 15.5545 12.5831 15.4854 12.6106C15.3123 12.6773 15.3123 12.6773 15.1782 12.8283C15.1791 13.0099 15.1791 13.0099 15.2501 13.188C15.375 13.2974 15.375 13.2974 15.5384 13.3703C15.5975 13.4003 15.6567 13.4303 15.7176 13.4612C15.78 13.4912 15.8423 13.5212 15.9064 13.5521C16.0879 13.6427 16.2692 13.7334 16.45 13.8252C16.6105 13.907 16.6105 13.907 16.7574 13.9628C17.2253 14.169 17.3718 14.6251 17.5742 15.067C17.6486 15.2246 17.7232 15.3822 17.7981 15.5396C17.8303 15.6093 17.8625 15.679 17.8957 15.7509C17.9762 15.9287 17.9762 15.9287 18.1271 16.065C18.3086 16.064 18.3086 16.064 18.4867 15.993C18.5962 15.8682 18.5962 15.8682 18.6691 15.7048C18.6991 15.6456 18.7291 15.5865 18.76 15.5255C18.79 15.4632 18.82 15.4009 18.8509 15.3367C18.9414 15.1553 19.0322 14.974 19.124 14.7932C19.2057 14.6326 19.2057 14.6326 19.2615 14.4857C19.4678 14.0179 19.9238 13.8713 20.3658 13.669C20.5234 13.5945 20.6809 13.5199 20.8383 13.445C20.9081 13.4128 20.9778 13.3806 21.0497 13.3475C21.2275 13.2669 21.2275 13.2669 21.3637 13.116C21.3628 12.9345 21.3628 12.9345 21.2918 12.7564C21.167 12.647 21.167 12.647 21.0035 12.5741C20.9444 12.5441 20.8852 12.5141 20.8243 12.4832C20.762 12.4532 20.6997 12.4232 20.6355 12.3923C20.4541 12.3017 20.2728 12.211 20.092 12.1191C19.9314 12.0374 19.9314 12.0374 19.7845 11.9816C19.3166 11.7754 19.1701 11.3193 18.9677 10.8774C18.8933 10.7198 18.8187 10.5622 18.7438 10.4048C18.7116 10.3351 18.6794 10.2654 18.6462 10.1935C18.5657 10.0157 18.5657 10.0157 18.4148 9.87944C18.3199 9.87944 18.2249 9.87944 18.1271 9.87944ZM26.6861 11.1022C26.6515 11.2678 26.6515 11.2678 26.6861 11.4618C26.8227 11.5908 26.9464 11.6894 27.0997 11.7944C27.1863 11.8576 27.2726 11.9211 27.3587 11.9849C27.4027 12.0173 27.4467 12.0498 27.492 12.0832C28.2045 12.6229 28.7424 13.2691 29.2754 13.9791C29.3709 14.0994 29.4666 14.2194 29.5631 14.3388C29.7411 14.3032 29.7411 14.3032 29.9227 14.2668C29.8992 13.8331 29.7025 13.6047 29.4328 13.2869C29.3907 13.2365 29.3487 13.1861 29.3053 13.1341C28.7697 12.5004 28.2038 11.9234 27.5492 11.4123C27.491 11.3667 27.491 11.3667 27.4315 11.3202C27.085 11.0463 27.085 11.0463 26.6861 11.1022ZM14.0993 15.6334C13.9302 15.8871 13.9401 15.9951 13.9465 16.2942C13.9485 16.4115 13.9485 16.4115 13.9504 16.5311C13.9521 16.5909 13.9538 16.6507 13.9555 16.7123C13.8658 16.7098 13.8658 16.7098 13.7743 16.7072C13.6961 16.7059 13.618 16.7046 13.5374 16.7033C13.4598 16.7016 13.3822 16.6999 13.3023 16.6982C13.0784 16.6957 13.0784 16.6957 12.8766 16.8561C12.9014 17.034 12.9014 17.034 12.9486 17.2157C13.1474 17.3152 13.3115 17.2945 13.5329 17.2922C13.6117 17.2915 13.6906 17.2909 13.7718 17.2902C13.8324 17.2894 13.893 17.2885 13.9555 17.2877C13.953 17.3774 13.953 17.3774 13.9504 17.4689C13.9491 17.547 13.9478 17.6252 13.9465 17.7057C13.9448 17.7833 13.9432 17.8609 13.9414 17.9409C13.9389 18.1647 13.9389 18.1647 14.0993 18.3665C14.2772 18.3418 14.2772 18.3418 14.459 18.2946C14.5584 18.0958 14.5377 17.9317 14.5354 17.7102C14.5347 17.6314 14.5341 17.5526 14.5334 17.4714C14.5326 17.4108 14.5318 17.3501 14.5309 17.2877C14.6206 17.2902 14.6206 17.2902 14.7121 17.2927C14.8293 17.2947 14.8293 17.2947 14.949 17.2967C15.0266 17.2983 15.1042 17.3 15.1841 17.3017C15.4079 17.3042 15.4079 17.3042 15.6098 17.1438C15.585 16.966 15.585 16.966 15.5378 16.7842C15.339 16.6848 15.1749 16.7054 14.9534 16.7078C14.8746 16.7084 14.7958 16.7091 14.7146 16.7097C14.6237 16.711 14.6237 16.711 14.5309 16.7123C14.5326 16.6525 14.5342 16.5927 14.5359 16.5311C14.5372 16.4529 14.5385 16.3747 14.5399 16.2942C14.5416 16.2166 14.5432 16.139 14.5449 16.0591C14.5475 15.8352 14.5475 15.8352 14.387 15.6334C14.2921 15.6334 14.1972 15.6334 14.0993 15.6334ZM30.8578 16.4246C30.8103 16.472 30.7628 16.5195 30.7139 16.5684C30.7377 17.0444 30.8426 17.4985 30.9499 17.962C31.396 20.2117 30.9681 22.6995 29.8508 24.6959C29.798 24.7742 29.7451 24.8524 29.6907 24.933C29.553 25.143 29.5343 25.2417 29.5631 25.4871C29.6818 25.5108 29.8005 25.5345 29.9227 25.559C31.4344 23.2835 32.0177 20.4999 31.4992 17.806C31.3722 17.1707 31.3722 17.1707 31.1455 16.5684C31.0006 16.4694 31.0006 16.4694 30.8578 16.4246Z" fill="black"/>
<path id="Vector_2" d="M12.1666 32.2202C12.2464 32.2198 12.3262 32.2194 12.4084 32.2189C12.6756 32.2177 12.9427 32.2181 13.2098 32.2184C13.4014 32.2179 13.5931 32.2173 13.7847 32.2165C14.2511 32.215 14.7175 32.2147 15.1838 32.2148C15.5631 32.2149 15.9423 32.2147 16.3215 32.2141C16.4308 32.214 16.5402 32.2138 16.6495 32.2137C16.7312 32.2136 16.7312 32.2136 16.8144 32.2134C17.8433 32.2121 18.8721 32.2122 19.9009 32.2126C20.8413 32.2131 21.7817 32.2116 22.7221 32.2092C23.6885 32.2067 24.6548 32.2057 25.6212 32.206C26.1635 32.2061 26.7057 32.2058 27.2479 32.204C27.7096 32.2025 28.1713 32.2022 28.6329 32.2036C28.8683 32.2042 29.1036 32.2041 29.339 32.2028C29.5946 32.2015 29.8502 32.2024 30.1058 32.2039C30.1795 32.203 30.2532 32.2021 30.3291 32.2012C30.9018 32.2082 31.3786 32.3565 31.8057 32.7513C32.4897 33.4737 32.3701 34.0716 32.3701 35.1256C24.9648 35.1256 17.5594 35.1256 9.92969 35.1256C9.92969 33.3606 9.92969 33.3606 10.4236 32.8212C10.9635 32.3107 11.4451 32.2165 12.1666 32.2202Z" fill="black"/>
<path id="Vector_3" d="M9.11174 35.6884C9.24181 35.6878 9.24181 35.6878 9.37449 35.6873C9.47158 35.6872 9.56867 35.6872 9.66576 35.6872C9.76822 35.6869 9.87069 35.6866 9.97315 35.6862C10.2557 35.6854 10.5383 35.6849 10.8209 35.6846C11.1253 35.6842 11.4296 35.6834 11.734 35.6826C12.4696 35.6808 13.2052 35.6798 13.9407 35.6788C14.1484 35.6786 14.3561 35.6783 14.5637 35.678C15.8525 35.6762 17.1414 35.6746 18.4302 35.6737C18.7289 35.6735 19.0275 35.6733 19.3261 35.6731C19.4004 35.673 19.4746 35.6729 19.5511 35.6729C20.754 35.672 21.9569 35.6696 23.1598 35.6666C24.3941 35.6635 25.6283 35.6619 26.8626 35.6615C27.5559 35.6612 28.2492 35.6604 28.9425 35.658C29.5328 35.656 30.1232 35.6552 30.7135 35.656C31.0149 35.6564 31.3161 35.6562 31.6174 35.6544C31.8932 35.6528 32.169 35.6528 32.4448 35.6542C32.5446 35.6544 32.6444 35.654 32.7442 35.6529C33.583 35.6444 33.583 35.6444 33.866 35.8718C34.4253 36.5303 34.096 36.6954 34.096 37.9998C25.5513 37.9998 17.0067 37.9998 8.20312 37.9998C8.20312 36.2017 8.20312 36.2017 8.56275 35.7702C8.75373 35.6747 8.89776 35.6889 9.11174 35.6884Z" fill="black"/>
<path id="Vector_4" d="M10.7199 6.71484C10.7673 6.71484 10.8148 6.71484 10.8637 6.71484C10.8989 6.78742 10.934 6.85999 10.9702 6.93476C11.1014 7.20489 11.2337 7.47445 11.3664 7.74384C11.4235 7.86033 11.4804 7.97697 11.5369 8.09377C11.6184 8.26201 11.701 8.42966 11.7838 8.59724C11.8212 8.67525 11.8212 8.67525 11.8593 8.75484C12.1157 9.26814 12.4761 9.47939 12.9846 9.72781C13.0352 9.75294 13.0858 9.77808 13.1379 9.80398C13.2982 9.88351 13.4587 9.96244 13.6193 10.0414C13.7286 10.0954 13.8378 10.1496 13.9471 10.2037C14.2137 10.3359 14.4806 10.4675 14.7476 10.5988C14.7476 10.6462 14.7476 10.6937 14.7476 10.7426C14.6388 10.7954 14.6388 10.7954 14.5277 10.8492C14.2576 10.9803 13.988 11.1126 13.7186 11.2453C13.6022 11.3024 13.4855 11.3593 13.3687 11.4158C13.2005 11.4973 13.0328 11.5799 12.8652 11.6627C12.8132 11.6876 12.7612 11.7125 12.7076 11.7382C12.1943 11.9946 11.9831 12.355 11.7347 12.8636C11.7095 12.9141 11.6844 12.9647 11.6585 13.0168C11.579 13.1771 11.5 13.3376 11.4211 13.4982C11.367 13.6075 11.3129 13.7167 11.2587 13.826C11.1266 14.0926 10.995 14.3595 10.8637 14.6265C10.8162 14.6265 10.7688 14.6265 10.7199 14.6265C10.6671 14.5177 10.6671 14.5177 10.6133 14.4066C10.4822 14.1365 10.3499 13.8669 10.2172 13.5975C10.1601 13.4811 10.1032 13.3644 10.0467 13.2476C9.96519 13.0794 9.88258 12.9117 9.79974 12.7441C9.7624 12.6661 9.7624 12.6661 9.72431 12.5866C9.46783 12.0732 9.10745 11.862 8.59893 11.6136C8.54835 11.5884 8.49778 11.5633 8.44567 11.5374C8.2854 11.4579 8.12483 11.3789 7.96425 11.3C7.85499 11.2459 7.74574 11.1918 7.63652 11.1376C7.36988 11.0055 7.10299 10.8739 6.83594 10.7426C6.83594 10.6951 6.83594 10.6477 6.83594 10.5988C6.90851 10.5636 6.98108 10.5285 7.05586 10.4922C7.32599 10.3611 7.59554 10.2288 7.86494 10.0961C7.98143 10.039 8.09807 9.98211 8.21487 9.92558C8.38311 9.84409 8.55076 9.76148 8.71834 9.67864C8.77034 9.65375 8.82235 9.62886 8.87593 9.60322C9.38923 9.34674 9.60048 8.98636 9.8489 8.47784C9.87404 8.42726 9.89917 8.37668 9.92507 8.32457C10.0046 8.1643 10.0835 8.00374 10.1624 7.84316C10.2165 7.7339 10.2707 7.62465 10.3248 7.51543C10.457 7.24879 10.5886 6.98189 10.7199 6.71484Z" fill="black"/>
<path id="Vector_5" d="M18.2007 10.7422C18.2482 10.7422 18.2956 10.7422 18.3446 10.7422C18.3633 10.7817 18.3821 10.8212 18.4014 10.8619C18.4887 11.0431 18.5784 11.223 18.6682 11.403C18.6977 11.4652 18.7272 11.5273 18.7576 11.5914C18.98 12.0311 19.1982 12.2525 19.6392 12.4684C19.7605 12.5325 19.7605 12.5325 19.8842 12.5979C19.9576 12.6338 20.031 12.6697 20.1067 12.7066C20.1816 12.7434 20.2565 12.7802 20.3337 12.8182C20.3893 12.8451 20.445 12.8721 20.5023 12.8999C20.5023 12.9474 20.5023 12.9949 20.5023 13.0438C20.4628 13.0625 20.4233 13.0813 20.3826 13.1007C20.2013 13.1879 20.0215 13.2776 19.8415 13.3674C19.7793 13.3969 19.7172 13.4264 19.6531 13.4568C19.2133 13.6792 18.9919 13.8974 18.7761 14.3384C18.7334 14.4193 18.6906 14.5001 18.6466 14.5834C18.6107 14.6568 18.5748 14.7303 18.5379 14.8059C18.501 14.8808 18.4642 14.9558 18.4263 15.0329C18.3993 15.0886 18.3724 15.1442 18.3446 15.2015C18.2971 15.2015 18.2496 15.2015 18.2007 15.2015C18.1819 15.162 18.1632 15.1225 18.1438 15.0818C18.0565 14.9006 17.9668 14.7207 17.877 14.5407C17.8328 14.4475 17.8328 14.4475 17.7877 14.3523C17.5653 13.9126 17.3471 13.6912 16.9061 13.4753C16.8252 13.4326 16.7444 13.3898 16.6611 13.3458C16.5876 13.3099 16.5142 13.274 16.4386 13.2371C16.3262 13.1819 16.3262 13.1819 16.2115 13.1255C16.1559 13.0986 16.1003 13.0716 16.043 13.0438C16.043 12.9963 16.043 12.9488 16.043 12.8999C16.1022 12.8718 16.1022 12.8718 16.1627 12.843C16.3439 12.7558 16.5238 12.6661 16.7038 12.5763C16.7659 12.5468 16.8281 12.5173 16.8922 12.4869C17.3319 12.2645 17.5533 12.0463 17.7692 11.6053C17.8119 11.5244 17.8546 11.4436 17.8987 11.3603C17.9346 11.2869 17.9704 11.2134 18.0074 11.1378C18.0626 11.0254 18.0626 11.0254 18.1189 10.9108C18.1459 10.8551 18.1729 10.7995 18.2007 10.7422Z" fill="black"/>
<path id="Vector_6" d="M6.7644 3.15069C6.81187 3.14994 6.85934 3.1492 6.90825 3.14844C7.12271 3.2054 7.20775 3.2979 7.3398 3.47435C7.36789 3.69124 7.36789 3.69124 7.35778 3.92387C7.35518 4.00138 7.35258 4.07889 7.34991 4.15875C7.34657 4.21772 7.34323 4.27669 7.3398 4.33744C7.39876 4.3341 7.45773 4.33076 7.51848 4.32733C7.59599 4.32473 7.6735 4.32213 7.75336 4.31946C7.86851 4.31445 7.86851 4.31445 7.98599 4.30934C8.20289 4.33744 8.20289 4.33744 8.37259 4.46443C8.49708 4.63398 8.52978 4.70603 8.52655 4.91284C8.52729 4.96031 8.52803 5.00778 8.5288 5.05669C8.47183 5.27115 8.37934 5.35619 8.20289 5.48823C7.98599 5.51633 7.98599 5.51633 7.75336 5.50621C7.67585 5.50362 7.59834 5.50102 7.51848 5.49835C7.45952 5.49501 7.40055 5.49167 7.3398 5.48823C7.34313 5.5472 7.34647 5.60617 7.34991 5.66692C7.3538 5.78319 7.3538 5.78319 7.35778 5.9018C7.36111 5.97857 7.36445 6.05534 7.36789 6.13443C7.3398 6.35133 7.3398 6.35133 7.2128 6.52102C7.04326 6.64552 6.9712 6.67822 6.7644 6.67499C6.69319 6.6761 6.69319 6.6761 6.62055 6.67724C6.40609 6.62027 6.32105 6.52778 6.189 6.35133C6.16091 6.13443 6.16091 6.13443 6.17102 5.9018C6.17362 5.82429 6.17621 5.74678 6.17889 5.66692C6.18223 5.60795 6.18556 5.54899 6.189 5.48823C6.13004 5.49157 6.07107 5.49491 6.01032 5.49835C5.89405 5.50224 5.89405 5.50224 5.77544 5.50621C5.69867 5.50955 5.6219 5.51289 5.54281 5.51633C5.32591 5.48823 5.32591 5.48823 5.15621 5.36124C5.03172 5.1917 4.99902 5.11964 5.00225 4.91284C5.00114 4.84163 5.00114 4.84163 5 4.76899C5.05697 4.55453 5.14946 4.46949 5.32591 4.33744C5.54281 4.30934 5.54281 4.30934 5.77544 4.31946C5.85295 4.32206 5.93046 4.32465 6.01032 4.32733C6.09877 4.33233 6.09877 4.33233 6.189 4.33744C6.18567 4.27847 6.18233 4.21951 6.17889 4.15875C6.17629 4.08124 6.1737 4.00373 6.17102 3.92387C6.16768 3.84711 6.16435 3.77034 6.16091 3.69124C6.189 3.47435 6.189 3.47435 6.31599 3.30465C6.48554 3.18016 6.55759 3.14745 6.7644 3.15069Z" fill="black"/>
<path id="Vector_7" d="M14.8191 2.00225C14.8666 2.00151 14.914 2.00076 14.9629 2C15.1774 2.05697 15.2624 2.14946 15.3945 2.32591C15.4226 2.54281 15.4226 2.54281 15.4125 2.77544C15.4099 2.85295 15.4073 2.93046 15.4046 3.01032C15.4013 3.06928 15.3979 3.12825 15.3945 3.189C15.4534 3.18567 15.5124 3.18233 15.5732 3.17889C15.6507 3.17629 15.7282 3.1737 15.808 3.17102C15.9232 3.16601 15.9232 3.16601 16.0407 3.16091C16.2576 3.189 16.2576 3.189 16.4273 3.31599C16.5518 3.48554 16.5845 3.55759 16.5812 3.7644C16.582 3.81187 16.5827 3.85934 16.5835 3.90825C16.5265 4.12271 16.434 4.20775 16.2576 4.3398C16.0407 4.36789 16.0407 4.36789 15.808 4.35778C15.7305 4.35518 15.653 4.35258 15.5732 4.34991C15.5142 4.34657 15.4552 4.34323 15.3945 4.3398C15.3978 4.39876 15.4012 4.45773 15.4046 4.51848C15.4085 4.63475 15.4085 4.63475 15.4125 4.75336C15.4158 4.83013 15.4191 4.9069 15.4226 4.98599C15.3945 5.20289 15.3945 5.20289 15.2675 5.37259C15.0979 5.49708 15.0259 5.52978 14.8191 5.52655C14.7479 5.52766 14.7479 5.52766 14.6752 5.5288C14.4608 5.47183 14.3757 5.37934 14.2437 5.20289C14.2156 4.98599 14.2156 4.98599 14.2257 4.75336C14.2283 4.67585 14.2309 4.59834 14.2336 4.51848C14.2369 4.45952 14.2403 4.40055 14.2437 4.3398C14.1847 4.34313 14.1258 4.34647 14.065 4.34991C13.9487 4.3538 13.9487 4.3538 13.8301 4.35778C13.7534 4.36111 13.6766 4.36445 13.5975 4.36789C13.3806 4.3398 13.3806 4.3398 13.2109 4.2128C13.0864 4.04326 13.0537 3.9712 13.0569 3.7644C13.0558 3.69319 13.0558 3.69319 13.0547 3.62055C13.1117 3.40609 13.2041 3.32105 13.3806 3.189C13.5975 3.16091 13.5975 3.16091 13.8301 3.17102C13.9076 3.17362 13.9851 3.17621 14.065 3.17889C14.1535 3.18389 14.1535 3.18389 14.2437 3.189C14.2404 3.13004 14.237 3.07107 14.2336 3.01032C14.231 2.93281 14.2284 2.8553 14.2257 2.77544C14.2224 2.69867 14.219 2.6219 14.2156 2.54281C14.2437 2.32591 14.2437 2.32591 14.3707 2.15621C14.5402 2.03172 14.6123 1.99902 14.8191 2.00225Z" fill="black"/>
</g>
</g>
</svg>
