<svg width="40" height="40" viewBox="0 0 40 40" fill="none" xmlns="http://www.w3.org/2000/svg">
<g id="material-symbols:home-rounded">
<rect width="40" height="40" rx="6" fill="#292929"/>
<path id="Vector" d="M11 27.7143V17.4286C11 17.0667 11.0799 16.7238 11.2396 16.4C11.3994 16.0762 11.6195 15.8095 11.9 15.6L18.65 10.4571C19.0437 10.1524 19.4937 10 20 10C20.5062 10 20.9562 10.1524 21.35 10.4571L28.1 15.6C28.3812 15.8095 28.6017 16.0762 28.7615 16.4C28.9212 16.7238 29.0007 17.0667 29 17.4286V27.7143C29 28.3429 28.7795 28.8811 28.3385 29.3291C27.8975 29.7771 27.368 30.0008 26.75 30H23.375C23.0562 30 22.7892 29.8903 22.574 29.6709C22.3587 29.4514 22.2507 29.1802 22.25 28.8571V23.1429C22.25 22.819 22.142 22.5478 21.926 22.3291C21.71 22.1105 21.443 22.0008 21.125 22H18.875C18.5562 22 18.2892 22.1097 18.074 22.3291C17.8587 22.5486 17.7507 22.8198 17.75 23.1429V28.8571C17.75 29.1809 17.642 29.4526 17.426 29.672C17.21 29.8914 16.943 30.0008 16.625 30H13.25C12.6312 30 12.1017 29.7764 11.6615 29.3291C11.2212 28.8819 11.0007 28.3436 11 27.7143Z" fill="white"/>
</g>
</svg>
