<svg viewBox="0 0 16 16" fill="none" xmlns="http://www.w3.org/2000/svg" class="w-4"><g clip-path="url(#rocket_svg__a)" fill="#fff"><path d="M15.107.79c.24.234.368.473.372.813v.075l-.001.08c-.026 1.51-.447 3.033-1.072 4.398l-.036.081a12.323 12.323 0 0 1-1.887 2.923c-.026.03-.05.06-.077.09l-.074.08c-.06.071-.06.071-.042.148.024.091.053.18.084.27l.037.108.076.222c.222.654.364 1.33.056 1.982a6.44 6.44 0 0 1-.762 1.159l-.071.09c-.142.175-.29.344-.443.51a19.252 19.252 0 0 1-.799.869l-.082.086a38.384 38.384 0 0 1-.34.353c-.184.185-.348.312-.608.358-.262-.003-.462-.058-.649-.248-.28-.363-.375-.907-.512-1.337l-.067-.212-.066-.205-.03-.095c-.06-.191-.12-.383-.177-.575l-.269.127-.081.038c-.2.095-.397.193-.594.294-.232.11-.524.108-.772.05-.307-.114-.533-.343-.76-.571a46.118 46.118 0 0 0-.312-.31 316.1 316.1 0 0 0-.638-.637 181.56 181.56 0 0 0-.858-.855 82.259 82.259 0 0 0-.5-.5l-.079-.077c-.259-.262-.426-.535-.43-.91l-.002-.117c.02-.305.215-.598.35-.864a299.598 299.598 0 0 0 .195-.387.828.828 0 0 0-.238-.113l-.09-.028-.096-.03-.101-.032-.32-.102a300.06 300.06 0 0 1-1.131-.36l-.067-.02A1.028 1.028 0 0 1 .594 7a.825.825 0 0 1-.043-.595c.123-.296.374-.504.6-.723l.126-.126c.178-.175.356-.35.546-.511.09-.078.177-.162.265-.244.183-.171.372-.333.568-.488l.102-.083c.636-.512 1.33-.996 2.18-.949a5.076 5.076 0 0 1 1.494.418c.08.023.116.019.193-.011.065-.052.126-.105.187-.16C8.186 2.316 13.476-.597 15.107.788ZM6.573 5.045l-.144.143c-.199.198-.38.404-.554.624l-.09.105c-.772.893-1.39 1.916-1.941 2.957l-.04.077-.109.206-.031.06a.494.494 0 0 0-.07.313c.043.068.043.068.107.129l.073.074.08.08.084.085.23.23.19.192.452.452c.156.155.31.312.465.468a85.407 85.407 0 0 0 .638.641c.088.09.178.178.267.267l.08.08c.14.145.14.145.331.18.088-.031.172-.062.256-.104l.088-.044a35.752 35.752 0 0 0 .193-.098 16.591 16.591 0 0 0 2.25-1.398c.29-.212.57-.435.84-.671l.07-.06.18-.159.068-.059c.197-.175.387-.358.574-.545a7.218 7.218 0 0 0 .703-.771l.088-.103c.504-.577.919-1.226 1.284-1.898l.101-.182c.738-1.33 1.25-2.991 1.251-4.522l.001-.075c0-.063-.003-.126-.007-.189-.077-.077-.123-.07-.228-.072H14.158c-2.882.055-5.592 1.594-7.585 3.587Zm-3.448.11-.049.041c-.408.34-.794.704-1.167 1.082-.09.09-.186.171-.284.252.026.07.026.07.1.091l.09.03.104.033.112.036a777.337 777.337 0 0 1 .667.213l.296.095.11.036c.204.064.405.118.615.154.126-.18.25-.36.371-.543.305-.464.624-.916.988-1.335.074-.086.146-.174.217-.263.163-.2.34-.39.517-.578-.07-.07-.11-.082-.206-.108l-.087-.025-.091-.025-.09-.026c-.931-.26-1.523.262-2.213.84Zm8.282 5.118-.059.055-.063.06a9.55 9.55 0 0 1-.598.517 15.996 15.996 0 0 1-1.71 1.234 3.504 3.504 0 0 0-.196.141c.02.206.083.392.147.587l.035.107a120.279 120.279 0 0 0 .185.561l.071.217.034.102c.058.175.118.348.184.52.095-.069.173-.142.249-.23.108-.128.226-.246.345-.364a6.35 6.35 0 0 0 .385-.407c.065-.076.133-.148.201-.222a8.68 8.68 0 0 0 .466-.566l.123-.155a4.23 4.23 0 0 0 .388-.568l.035-.061c.234-.426.156-.826.027-1.27a5.244 5.244 0 0 0-.125-.344c-.055 0-.086.049-.125.085Z"></path><path d="M12.094 3.906c.39.403.543.896.54 1.446-.013.549-.26 1.007-.65 1.386-.12.1-.252.17-.39.24l-.063.033c-.444.215-.949.218-1.418.084a1.985 1.985 0 0 1-1.082-.907 2.066 2.066 0 0 1-.1-1.591c.198-.505.54-.845 1.028-1.075.126-.053.25-.09.385-.116l.06-.011c.632-.096 1.207.104 1.69.511Zm-2.173.811a.973.973 0 0 0-.171.69c.076.294.2.528.457.699.248.136.51.175.783.105.275-.09.482-.239.615-.5.117-.254.13-.551.034-.816a1.075 1.075 0 0 0-.564-.549c-.455-.143-.866.006-1.154.371ZM2.633 10.943a.66.66 0 0 1 .242.276c.032.229-.037.386-.143.586-.328.654-.492 1.35-.607 2.07.794-.14 1.541-.32 2.26-.695a.568.568 0 0 1 .396-.055c.16.083.256.173.313.344.016.191-.007.31-.125.468-.81.656-2.21.903-3.227.916l-.072.003a.495.495 0 0 1-.389-.137c-.12-.141-.144-.256-.138-.436l.001-.074a7.123 7.123 0 0 1 .622-2.633l.033-.077c.094-.206.198-.43.385-.564a.646.646 0 0 1 .449.008Z"></path></g><defs><clipPath id="rocket_svg__a"><path fill="#fff" d="M0 0h16v16H0z"></path></clipPath></defs></svg>