<svg width="20" height="20" viewBox="0 0 20 20" fill="none" xmlns="http://www.w3.org/2000/svg">
<g id="Frame 24517521">
<path id="Vector" d="M9.85455 2C9.95055 2 10.0465 2 10.1455 2C10.2166 2.14677 10.2876 2.29353 10.3609 2.44474C10.6261 2.99104 10.8937 3.53616 11.162 4.08097C11.2776 4.31654 11.3925 4.55243 11.5069 4.78864C11.6717 5.12887 11.8387 5.46792 12.0062 5.80682C12.0818 5.96458 12.0818 5.96458 12.1588 6.12552C12.6775 7.16358 13.4063 7.5908 14.4347 8.09318C14.5369 8.14401 14.6392 8.19485 14.7446 8.24722C15.0687 8.40807 15.3934 8.56769 15.7182 8.72727C15.9391 8.83666 16.1601 8.94613 16.381 9.05568C16.9202 9.3229 17.4599 9.58901 18 9.85455C18 9.95055 18 10.0465 18 10.1455C17.7799 10.2521 17.7799 10.2521 17.5553 10.3609C17.009 10.6261 16.4638 10.8937 15.919 11.162C15.6835 11.2776 15.4476 11.3925 15.2114 11.5069C14.8711 11.6717 14.5321 11.8387 14.1932 12.0062C14.088 12.0566 13.9828 12.1069 13.8745 12.1588C12.8364 12.6775 12.4092 13.4063 11.9068 14.4347C11.856 14.5369 11.8052 14.6392 11.7528 14.7446C11.5919 15.0687 11.4323 15.3934 11.2727 15.7182C11.1633 15.9391 11.0539 16.1601 10.9443 16.381C10.6771 16.9202 10.411 17.4599 10.1455 18C10.0495 18 9.95345 18 9.85455 18C9.7479 17.7799 9.7479 17.7799 9.6391 17.5553C9.37387 17.009 9.10631 16.4638 8.83803 15.919C8.72243 15.6835 8.60746 15.4476 8.49315 15.2114C8.32834 14.8711 8.16128 14.5321 7.99375 14.1932C7.91825 14.0354 7.91825 14.0354 7.84122 13.8745C7.32254 12.8364 6.59373 12.4092 5.56534 11.9068C5.46306 11.856 5.36077 11.8052 5.25539 11.7528C4.93127 11.5919 4.60656 11.4323 4.28182 11.2727C4.06085 11.1633 3.83992 11.0539 3.61903 10.9443C3.07981 10.6771 2.54006 10.411 2 10.1455C2 10.0495 2 9.95345 2 9.85455C2.14677 9.78345 2.29353 9.71235 2.44474 9.6391C2.99104 9.37387 3.53616 9.10631 4.08097 8.83803C4.31654 8.72243 4.55243 8.60746 4.78864 8.49315C5.12887 8.32834 5.46792 8.16128 5.80682 7.99375C5.91199 7.94342 6.01716 7.89308 6.12552 7.84122C7.16358 7.32254 7.5908 6.59373 8.09318 5.56534C8.14401 5.46306 8.19485 5.36077 8.24722 5.25539C8.40807 4.93127 8.56769 4.60656 8.72727 4.28182C8.83666 4.06085 8.94613 3.83992 9.05568 3.61903C9.3229 3.07981 9.58901 2.54006 9.85455 2Z" fill="#F4A4B3"/>
</g>
</svg>
