<svg width="40" height="40" viewBox="0 0 40 40" fill="none" xmlns="http://www.w3.org/2000/svg">
<g id="target (1) 1">
<path id="Vector" d="M19.0278 1.23132C19.0974 1.23056 19.1671 1.2298 19.2388 1.22901C20.796 1.21549 22.2986 1.2363 23.8282 1.56244C23.9318 1.58375 23.9318 1.58375 24.0374 1.6055C25.4203 1.89746 26.7697 2.36653 28.047 2.96869C27.9387 3.21353 27.8133 3.37637 27.6219 3.56256C27.5699 3.61372 27.5178 3.66488 27.4643 3.71759C27.3829 3.79644 27.3829 3.79644 27.2999 3.87689C27.1922 3.9819 27.0847 4.08707 26.9773 4.19244C26.9297 4.23873 26.882 4.28502 26.8328 4.33271C26.7112 4.44949 26.7112 4.44949 26.6407 4.60931C26.5892 4.60931 26.5376 4.60931 26.4845 4.60931C26.4579 4.67215 26.4579 4.67215 26.4308 4.73626C26.3282 4.92181 26.3282 4.92181 26.1329 5.1513C25.833 5.51869 25.7593 5.84819 25.6935 6.31341C25.6804 6.40415 25.6673 6.49489 25.6538 6.58838C25.6443 6.65716 25.6349 6.72594 25.6251 6.79681C25.5209 6.766 25.4168 6.73504 25.3126 6.70404C25.2408 6.68269 25.169 6.66134 25.095 6.63934C24.918 6.58514 24.7417 6.52878 24.5658 6.47088C21.523 5.47003 18.4295 5.5096 15.3907 6.48431C15.3079 6.51071 15.3079 6.51071 15.2233 6.53764C13.8403 6.98908 12.5528 7.70318 11.4064 8.59369C11.3389 8.64474 11.2714 8.6958 11.2019 8.74841C8.25962 11.028 6.42249 14.3255 5.83508 17.9882C5.81461 18.1637 5.79688 18.3396 5.78136 18.5156C5.77624 18.5697 5.77112 18.6239 5.76584 18.6797C5.42605 22.4736 6.61858 26.2341 9.03256 29.1691C9.56746 29.8004 10.13 30.4247 10.7814 30.9374C10.8223 30.9702 10.8631 31.0029 10.9053 31.0367C13.9635 33.4722 17.7723 34.6182 21.6688 34.1988C22.6782 34.0802 23.6433 33.8261 24.6095 33.5156C24.6936 33.4885 24.6936 33.4885 24.7794 33.461C26.0308 33.0484 27.2167 32.4139 28.2814 31.6406C28.3619 31.5823 28.4425 31.5239 28.5255 31.4639C29.4027 30.8152 30.261 30.0782 30.9376 29.2187C30.9704 29.1778 31.0031 29.1369 31.0369 29.0948C33.5331 25.9604 34.6144 22.1161 34.1734 18.143C34.0247 16.9944 33.7139 15.9076 33.3091 14.8251C33.2032 14.5312 33.2032 14.5312 33.2032 14.3749C33.288 14.3616 33.3728 14.3483 33.4602 14.3347C33.5731 14.3156 33.686 14.2965 33.7989 14.2773C33.8546 14.2687 33.9103 14.2602 33.9677 14.2513C34.0226 14.2418 34.0775 14.2322 34.134 14.2223C34.1839 14.2142 34.2339 14.206 34.2853 14.1976C34.7296 14.0468 35.0515 13.7185 35.3697 13.3874C35.4525 13.3029 35.5354 13.2185 35.6182 13.1341C35.747 13.0019 35.8756 12.8695 36.004 12.737C36.129 12.6082 36.2546 12.4802 36.3804 12.3522C36.4188 12.3122 36.4571 12.2722 36.4966 12.2309C36.5923 12.1338 36.6943 12.0428 36.797 11.9531C36.8743 11.9531 36.9517 11.9531 37.0314 11.9531C38.1726 14.5201 38.7854 17.1344 38.7794 19.9462C38.7793 20.0594 38.7793 20.0594 38.7793 20.1749C38.7761 21.4169 38.7038 22.6108 38.4376 23.8281C38.4125 23.9436 38.4125 23.9436 38.3869 24.0615C37.7706 26.7992 36.5902 29.3626 34.8439 31.5624C34.7916 31.6297 34.7393 31.697 34.6855 31.7663C34.3265 32.2182 33.943 32.644 33.5499 33.0663C33.4781 33.1439 33.4781 33.1439 33.4048 33.223C33.0699 33.5788 32.7168 33.9033 32.3439 34.2187C32.296 34.2596 32.2481 34.3006 32.1988 34.3428C31.4293 34.9966 30.6298 35.5717 29.7657 36.0937C29.7146 36.1247 29.6635 36.1557 29.6108 36.1876C26.7089 37.9277 23.4252 38.7864 20.0538 38.7792C19.9784 38.7792 19.9029 38.7791 19.8251 38.7791C18.5832 38.7759 17.3892 38.7037 16.172 38.4374C16.0949 38.4207 16.0179 38.4039 15.9385 38.3867C12.7853 37.6769 9.91532 36.2035 7.50011 34.0624C7.4575 34.0248 7.41489 33.9871 7.37099 33.9483C4.19388 31.1218 2.05928 27.1726 1.40636 22.9687C1.39257 22.8808 1.37877 22.793 1.36456 22.7025C1.23937 21.8193 1.21892 20.9448 1.22082 20.0536C1.22086 19.9782 1.2209 19.9027 1.22095 19.825C1.2258 17.9442 1.48677 16.1782 2.03136 14.3749C2.06077 14.2771 2.06077 14.2771 2.09076 14.1772C2.73432 12.0876 3.79893 10.1467 5.15636 8.43744C5.20954 8.36926 5.26271 8.30108 5.3175 8.23083C8.4332 4.31902 12.9564 1.8877 17.9079 1.28661C18.2815 1.24603 18.6522 1.23475 19.0278 1.23132Z" fill="black"/>
<path id="Vector_2" d="M24.4528 11.0155C24.339 11.2734 24.1959 11.4539 24.0033 11.6588C23.943 11.7232 23.8827 11.7875 23.8205 11.8538C23.5421 12.1455 23.2621 12.4357 22.9806 12.7244C22.8326 12.8766 22.6864 13.0303 22.5417 13.1857C21.2714 14.5474 21.2714 14.5474 20.7485 14.6104C20.455 14.5887 20.2031 14.5355 19.9215 14.453C18.4885 14.4194 17.1387 15.1091 16.1206 16.0644C15.0389 17.1586 14.5062 18.4674 14.4918 19.9999C14.5086 21.5145 15.0301 22.8585 16.1053 23.9333C17.3531 25.0956 18.7585 25.5406 20.4361 25.4952C21.9021 25.4235 23.155 24.7296 24.1403 23.6718C24.8271 22.8711 25.4988 21.7207 25.4603 20.629C25.4414 20.4773 25.4224 20.3257 25.4033 20.174C25.3317 19.5001 25.3617 18.9851 25.7824 18.4337C26.1678 17.9962 26.5909 17.6024 27.0257 17.2148C27.2319 17.0288 27.4325 16.837 27.6336 16.6456C28.0264 16.2735 28.425 15.9081 28.8278 15.5468C29.0622 15.6249 29.0622 15.6249 29.1738 15.8196C30.2142 18.2546 30.3858 21.1131 29.4184 23.6035C28.8816 24.9012 28.1517 26.0101 27.1872 27.0312C27.1336 27.0898 27.08 27.1484 27.0248 27.2088C25.8191 28.4815 24.1742 29.3063 22.4997 29.7655C22.4079 29.792 22.3162 29.8185 22.2216 29.8458C19.6162 30.4651 16.8714 29.865 14.609 28.5155C14.0115 28.1305 13.4843 27.6747 12.9684 27.1874C12.9098 27.1338 12.8512 27.0803 12.7908 27.0251C12.2742 26.5357 11.8761 25.9806 11.484 25.3905C11.4349 25.3176 11.3857 25.2447 11.3351 25.1696C9.98367 23.0196 9.63132 20.2703 10.1562 17.8103C10.7648 15.2349 12.2831 12.9539 14.5288 11.5179C17.345 9.79016 21.5224 9.14163 24.4528 11.0155Z" fill="black"/>
<path id="Vector_3" d="M32.1872 1.24983C32.3506 1.36566 32.3506 1.36566 32.4997 1.56233C32.5323 1.79805 32.5469 2.00638 32.5473 2.24226C32.5486 2.30771 32.5499 2.37316 32.5512 2.4406C32.555 2.64915 32.5567 2.85766 32.5583 3.06623C32.5605 3.20784 32.5628 3.34944 32.5653 3.49104C32.5711 3.83771 32.575 4.18437 32.5778 4.53108C32.6496 4.46612 32.6496 4.46612 32.7229 4.39985C32.7859 4.34325 32.8489 4.28666 32.9138 4.22834C33.0074 4.14405 33.0074 4.14405 33.1028 4.05806C33.5759 3.65445 34.0452 3.62461 34.6472 3.63996C35.1336 3.69623 35.5072 3.86022 35.8493 4.2137C36.3325 4.82696 36.4094 5.40015 36.3278 6.1717C36.1979 6.58927 36.0038 6.89329 35.6946 7.19847C35.6523 7.24036 35.61 7.28226 35.5664 7.32543C35.5341 7.3572 35.5017 7.38897 35.4684 7.4217C35.5567 7.42243 35.645 7.42316 35.736 7.42391C36.0639 7.42703 36.3918 7.43217 36.7197 7.43791C36.8615 7.44012 37.0034 7.44178 37.1452 7.44287C37.3493 7.44455 37.5532 7.44819 37.7573 7.45222C37.8206 7.45232 37.8839 7.45241 37.9492 7.45251C38.2286 7.45976 38.4029 7.47508 38.6326 7.64074C38.7748 7.8491 38.8084 8.02076 38.7936 8.27243C38.6207 8.9218 37.7561 9.52038 37.2833 9.9922C37.1951 10.0804 37.107 10.1687 37.0188 10.2569C36.8353 10.4406 36.6516 10.6241 36.4678 10.8075C36.2321 11.0428 35.9967 11.2784 35.7614 11.5142C35.58 11.6959 35.3984 11.8774 35.2168 12.0588C35.1298 12.1457 35.043 12.2327 34.9561 12.3197C34.8354 12.4406 34.7143 12.5613 34.5933 12.682C34.4901 12.7851 34.4901 12.7851 34.3848 12.8903C34.2184 13.0467 34.2184 13.0467 34.0622 13.1248C33.9069 13.1092 33.9069 13.1092 33.7127 13.0749C32.2141 12.8368 30.4291 12.6385 29.1121 13.5469C28.5128 13.9849 27.9795 14.4984 27.4588 15.0255C27.4138 15.071 27.3688 15.1165 27.3224 15.1634C26.7641 15.7317 26.2255 16.3171 25.6931 16.9096C25.1898 17.4689 24.6724 18.0146 24.1544 18.5603C23.9716 18.7529 23.7889 18.9455 23.6064 19.1383C23.54 19.2083 23.54 19.2083 23.4723 19.2798C23.171 19.5987 22.8741 19.9212 22.5786 20.2456C22.461 20.3738 22.3433 20.502 22.2256 20.6301C22.1185 20.7474 22.0127 20.8657 21.9069 20.9841C21.4301 21.5025 20.9646 21.8777 20.2585 22.0048C19.6519 21.9977 19.1636 21.9386 18.6716 21.5623C18.2331 21.1092 18.0244 20.6577 18.0124 20.0242C18.0093 19.9353 18.0061 19.8464 18.0029 19.7548C18.1233 18.9225 18.6439 18.4246 19.2477 17.8851C19.3301 17.8098 19.4124 17.7345 19.4945 17.659C19.6255 17.5387 19.7566 17.4185 19.888 17.2988C20.2157 17.0003 20.5394 16.698 20.8612 16.3931C20.9084 16.3485 20.9555 16.3039 21.0041 16.2579C21.1983 16.0737 21.3925 15.8895 21.5866 15.7052C22.1324 15.1874 22.681 14.6738 23.2406 14.171C23.8305 13.6398 24.4095 13.0988 24.9741 12.5407C25.0196 12.4957 25.0652 12.4507 25.1122 12.4043C26.3146 11.2051 27.0407 10.2207 27.0811 8.47707C27.0703 7.83683 27.0223 7.19316 26.907 6.56274C26.8219 6.0288 26.8219 6.0288 26.9769 5.7604C27.1166 5.59839 27.2627 5.45542 27.4216 5.31233C27.494 5.23748 27.5661 5.16222 27.6375 5.08643C27.7066 5.01727 27.7757 4.94812 27.8469 4.87686C27.905 4.81862 27.905 4.81862 27.9642 4.7592C28.0896 4.63343 28.2153 4.50793 28.3411 4.38246C28.4293 4.29422 28.5174 4.20597 28.6056 4.11771C28.7891 3.93406 28.9728 3.75056 29.1566 3.56716C29.3923 3.33187 29.6277 3.09623 29.863 2.86048C30.0444 2.67878 30.226 2.49727 30.4076 2.31582C30.4946 2.22894 30.5814 2.142 30.6683 2.055C30.789 1.93403 30.91 1.81331 31.0311 1.69266C31.1343 1.58957 31.1343 1.58957 31.2396 1.4844C31.5168 1.2237 31.8158 1.17344 32.1872 1.24983Z" fill="black"/>
</g>
</svg>
