<svg width="1152" height="424" viewBox="0 0 1152 424" fill="none" xmlns="http://www.w3.org/2000/svg">
<g clip-path="url(#clip0_6610_4916)">
<g clip-path="url(#clip1_6610_4916)">
<path d="M93.069 157.019C93.9501 157.019 94.6643 156.305 94.6643 155.423C94.6643 154.542 93.9501 153.828 93.069 153.828C92.1879 153.828 91.4736 154.542 91.4736 155.423C91.4736 156.305 92.1879 157.019 93.069 157.019Z" fill="#FAD4DB"/>
<path d="M640.532 153.84C640.532 154.797 639.754 155.555 638.817 155.555C637.879 155.555 637.102 154.777 637.102 153.84C637.102 152.903 637.859 152.125 638.817 152.125C639.774 152.125 640.532 152.883 640.532 153.84Z" fill="#FAD4DB"/>
<path d="M8.85443 30.5885C8.85443 31.805 7.87726 32.7821 6.66081 32.7821C5.44436 32.7821 4.44727 31.7851 4.44727 30.5885C4.44727 29.392 5.44436 28.375 6.66081 28.375C7.87726 28.375 8.85443 29.3721 8.85443 30.5885Z" fill="#FAD4DB"/>
<path d="M27.8588 61.0036C27.8588 62.9978 26.2435 64.5931 24.2692 64.5931C22.295 64.5931 20.6797 62.9778 20.6797 61.0036C20.6797 59.0294 22.295 57.4141 24.2692 57.4141C26.2435 57.4141 27.8588 59.0294 27.8588 61.0036Z" fill="#FAD4DB"/>
<path d="M67.9615 36.9861C67.9615 39.0202 66.3063 40.6754 64.2722 40.6754C62.2382 40.6754 60.583 39.0202 60.583 36.9861C60.583 34.952 62.2382 33.2969 64.2722 33.2969C66.3063 33.2969 67.9615 34.952 67.9615 36.9861Z" fill="#FAD4DB"/>
<path d="M92.4302 62.6037C92.4302 64.0196 91.2735 65.1763 89.8576 65.1763C88.4418 65.1763 87.2852 64.0196 87.2852 62.6037C87.2852 61.1879 88.4418 60.0312 89.8576 60.0312C91.2735 60.0312 92.4302 61.1879 92.4302 62.6037Z" fill="#FAD4DB"/>
<path d="M153.393 99.4108C153.393 100.907 152.197 102.103 150.701 102.103C149.205 102.103 148.009 100.907 148.009 99.4108C148.009 97.9152 149.205 96.7188 150.701 96.7188C152.197 96.7188 153.393 97.9351 153.393 99.4108Z" fill="#FAD4DB"/>
<path d="M143.003 149.025C143.003 150.96 141.428 152.535 139.493 152.535C137.559 152.535 135.983 150.96 135.983 149.025C135.983 147.091 137.559 145.516 139.493 145.516C141.428 145.516 143.003 147.091 143.003 149.025Z" fill="#FAD4DB"/>
<path d="M405.358 113.81C405.358 114.807 404.56 115.605 403.563 115.605C402.566 115.605 401.769 114.807 401.769 113.81C401.769 112.813 402.566 112.016 403.563 112.016C404.56 112.016 405.358 112.813 405.358 113.81Z" fill="#FAD4DB"/>
<path d="M360.907 19.3881C360.907 20.5846 359.95 21.5418 358.753 21.5418C357.557 21.5418 356.6 20.5846 356.6 19.3881C356.6 18.1916 357.557 17.2344 358.753 17.2344C359.95 17.2344 360.907 18.1916 360.907 19.3881Z" fill="#FAD4DB"/>
<path d="M596.381 19.3809C596.381 20.6971 595.324 21.754 594.008 21.754C592.692 21.754 591.635 20.6971 591.635 19.3809C591.635 18.0647 592.692 17.0078 594.008 17.0078C595.324 17.0078 596.381 18.0647 596.381 19.3809Z" fill="#FAD4DB"/>
<path d="M614.946 22.5943C614.946 23.5515 614.169 24.3293 613.211 24.3293C612.254 24.3293 611.477 23.5515 611.477 22.5943C611.477 21.6371 612.254 20.8594 613.211 20.8594C614.169 20.8594 614.946 21.6371 614.946 22.5943Z" fill="#FAD4DB"/>
<path d="M682.39 8.17305C682.39 9.24991 681.513 10.1473 680.436 10.1473C679.359 10.1473 678.462 9.26986 678.462 8.17305C678.462 7.07625 679.339 6.21875 680.436 6.21875C681.533 6.21875 682.39 7.09619 682.39 8.17305Z" fill="#FAD4DB"/>
<path d="M758.408 75.3926C758.408 76.9082 757.172 78.1446 755.656 78.1446C754.141 78.1446 752.904 76.9082 752.904 75.3926C752.904 73.877 754.141 72.6406 755.656 72.6406C757.172 72.6406 758.408 73.877 758.408 75.3926Z" fill="#FAD4DB"/>
<path d="M698.025 161.83C698.025 162.707 697.307 163.425 696.429 163.425C695.552 163.425 694.834 162.707 694.834 161.83C694.834 160.952 695.552 160.234 696.429 160.234C697.307 160.234 698.025 160.952 698.025 161.83Z" fill="#FAD4DB"/>
<path d="M797.156 169.825C797.156 171.52 795.78 172.916 794.065 172.916C792.35 172.916 790.974 171.54 790.974 169.825C790.974 168.11 792.35 166.734 794.065 166.734C795.78 166.734 797.156 168.11 797.156 169.825Z" fill="#FAD4DB"/>
<path d="M752.525 219.447C752.525 221.261 751.049 222.737 749.234 222.737C747.42 222.737 745.964 221.261 745.964 219.447C745.964 217.632 747.44 216.156 749.234 216.156C751.029 216.156 752.525 217.632 752.525 219.447Z" fill="#FAD4DB"/>
<path d="M543.256 213.036C543.256 215.051 541.62 216.706 539.586 216.706C537.552 216.706 535.917 215.071 535.917 213.036C535.917 211.002 537.552 209.367 539.586 209.367C541.62 209.367 543.256 211.002 543.256 213.036Z" fill="#FAD4DB"/>
<path d="M593.271 206.639C593.271 207.995 592.174 209.092 590.818 209.092C589.462 209.092 588.365 207.995 588.365 206.639C588.365 205.283 589.462 204.188 590.818 204.188C592.174 204.188 593.271 205.283 593.271 206.639Z" fill="#FAD4DB"/>
<path d="M29.6528 224.248C29.6528 225.465 28.6757 226.442 27.4592 226.442C26.2428 226.442 25.2656 225.465 25.2656 224.248C25.2656 223.032 26.2428 222.055 27.4592 222.055C28.6757 222.055 29.6528 223.032 29.6528 224.248Z" fill="#FAD4DB"/>
<path d="M91.7327 243.446C91.7327 245.361 90.1772 246.916 88.2628 246.916C86.3484 246.916 84.793 245.361 84.793 243.446C84.793 241.532 86.3484 239.977 88.2628 239.977C90.1772 239.977 91.7327 241.532 91.7327 243.446Z" fill="#FAD4DB"/>
<path d="M103.818 195.427C103.818 196.943 102.601 198.159 101.086 198.159C99.57 198.159 98.3535 196.943 98.3535 195.427C98.3535 193.912 99.57 192.695 101.086 192.695C102.601 192.695 103.818 193.912 103.818 195.427Z" fill="#FAD4DB"/>
<path d="M66.4458 201.834C66.4458 203.051 65.4687 204.028 64.2522 204.028C63.0358 204.028 62.0586 203.051 62.0586 201.834C62.0586 200.618 63.0358 199.641 64.2522 199.641C65.4687 199.641 66.4458 200.618 66.4458 201.834Z" fill="#FAD4DB"/>
<path d="M81.3231 211.441C81.3231 212.897 80.1266 214.094 78.6708 214.094C77.2151 214.094 76.0186 212.897 76.0186 211.441C76.0186 209.986 77.2151 208.789 78.6708 208.789C80.1266 208.789 81.3231 209.986 81.3231 211.441Z" fill="#FAD4DB"/>
<path d="M9.11272 137.812C9.11272 139.168 8.01592 140.265 6.65987 140.265C5.30382 140.265 4.20703 139.168 4.20703 137.812C4.20703 136.456 5.30382 135.359 6.65987 135.359C8.01592 135.359 9.11272 136.456 9.11272 137.812Z" fill="#FAD4DB"/>
<path d="M21.0393 168.228C21.0393 169.106 20.3214 169.824 19.444 169.824C18.5665 169.824 17.8486 169.106 17.8486 168.228C17.8486 167.351 18.5665 166.633 19.444 166.633C20.3214 166.633 21.0393 167.351 21.0393 168.228Z" fill="#FAD4DB"/>
<path d="M116.759 12.981C116.759 14.5564 115.463 15.8526 113.887 15.8526C112.312 15.8526 111.016 14.5763 111.016 12.981C111.016 11.3857 112.312 10.1094 113.887 10.1094C115.463 10.1094 116.759 11.3857 116.759 12.981Z" fill="#FAD4DB"/>
<path d="M290.142 19.071C290.142 20.7661 288.766 22.1421 287.071 22.1421C285.376 22.1421 284 20.7661 284 19.071C284 17.376 285.376 16 287.071 16C288.766 16 290.142 17.376 290.142 19.071Z" fill="#FAD4DB"/>
<path d="M720.937 110.619C720.937 112.653 719.282 114.308 717.248 114.308C715.214 114.308 713.559 112.653 713.559 110.619C713.559 108.585 715.214 106.93 717.248 106.93C719.282 106.93 720.937 108.585 720.937 110.619Z" fill="#FAD4DB"/>
<path d="M858.496 208.234C858.496 210.229 856.881 211.844 854.886 211.844C852.892 211.844 851.277 210.229 851.277 208.234C851.277 206.24 852.892 204.625 854.886 204.625C856.881 204.625 858.496 206.24 858.496 208.234Z" fill="#FAD4DB"/>
<path d="M767.721 25.7853C767.721 27.1413 766.624 28.2581 765.248 28.2581C763.872 28.2581 762.775 27.1613 762.775 25.7853C762.775 24.4093 763.872 23.3125 765.248 23.3125C766.624 23.3125 767.721 24.4093 767.721 25.7853Z" fill="#FAD4DB"/>
<path d="M240.319 6.78023C242.191 6.78023 243.709 5.26242 243.709 3.39012C243.709 1.51781 242.191 0 240.319 0C238.447 0 236.929 1.51781 236.929 3.39012C236.929 5.26242 238.447 6.78023 240.319 6.78023Z" fill="#FAD4DB"/>
<path d="M163.902 38.5844C163.902 39.7012 163.005 40.5786 161.908 40.5786C160.811 40.5786 159.914 39.6812 159.914 38.5844C159.914 37.4876 160.811 36.5703 161.908 36.5703C163.005 36.5703 163.902 37.4677 163.902 38.5844Z" fill="#FAD4DB"/>
<path d="M38.9664 4.97852C38.9664 6.91287 37.391 8.48828 35.4766 8.48828C33.5621 8.48828 31.9668 6.91287 31.9668 4.97852C31.9668 3.04416 33.5422 1.46875 35.4766 1.46875C37.4109 1.46875 38.9664 3.04416 38.9664 4.97852Z" fill="#FAD4DB"/>
<path d="M30.8105 118.614C30.8105 119.571 30.0328 120.349 29.0557 120.349C28.0785 120.349 27.3008 119.571 27.3008 118.614C27.3008 117.657 28.0785 116.859 29.0557 116.859C30.0328 116.859 30.8105 117.637 30.8105 118.614Z" fill="#FAD4DB"/>
<path d="M432.32 40.1821C432.32 41.9369 430.904 43.3528 429.149 43.3528C427.394 43.3528 425.998 41.9369 425.998 40.1821C425.998 38.4272 427.414 37.0312 429.149 37.0312C430.884 37.0312 432.32 38.4471 432.32 40.1821Z" fill="#FAD4DB"/>
<path d="M462.951 38.5838C462.951 39.5809 462.153 40.3786 461.156 40.3786C460.159 40.3786 459.361 39.5809 459.361 38.5838C459.361 37.5867 460.159 36.7891 461.156 36.7891C462.153 36.7891 462.951 37.5867 462.951 38.5838Z" fill="#FAD4DB"/>
<path d="M675.65 190.631C675.65 191.528 674.932 192.246 674.034 192.246C673.137 192.246 672.419 191.528 672.419 190.631C672.419 189.734 673.137 189.016 674.034 189.016C674.932 189.016 675.65 189.734 675.65 190.631Z" fill="#FAD4DB"/>
<path d="M68.6601 84.9925C68.6601 88.0436 66.1873 90.5164 63.1362 90.5164C60.0851 90.5164 57.6123 88.0436 57.6123 84.9925C57.6123 81.9414 60.0851 79.4688 63.1362 79.4688C66.1873 79.4688 68.6601 81.9414 68.6601 84.9925Z" fill="#FAD4DB"/>
<path d="M160.732 51.3872C160.732 53.4014 159.096 55.0166 157.102 55.0166C155.108 55.0166 153.473 53.3814 153.473 51.3872C153.473 49.393 155.108 47.7578 157.102 47.7578C159.096 47.7578 160.732 49.393 160.732 51.3872Z" fill="#FAD4DB"/>
<path d="M216.947 52.9835C216.947 54.2199 215.95 55.217 214.714 55.217C213.478 55.217 212.48 54.2199 212.48 52.9835C212.48 51.7471 213.478 50.75 214.714 50.75C215.95 50.75 216.947 51.7471 216.947 52.9835Z" fill="#FAD4DB"/>
<path d="M488.775 46.5801C488.775 47.6969 487.878 48.5743 486.781 48.5743C485.684 48.5743 484.787 47.6769 484.787 46.5801C484.787 45.4833 485.684 44.5859 486.781 44.5859C487.878 44.5859 488.775 45.4833 488.775 46.5801Z" fill="#FAD4DB"/>
<path d="M483.55 99.4129C483.55 101.168 482.134 102.584 480.379 102.584C478.624 102.584 477.208 101.168 477.208 99.4129C477.208 97.6581 478.624 96.2422 480.379 96.2422C482.134 96.2422 483.55 97.6581 483.55 99.4129Z" fill="#FAD4DB"/>
<path d="M459.94 64.1965C459.94 65.2733 459.062 66.1508 457.986 66.1508C456.909 66.1508 456.031 65.2733 456.031 64.1965C456.031 63.1196 456.909 62.2422 457.986 62.2422C459.062 62.2422 459.94 63.1196 459.94 64.1965Z" fill="#FAD4DB"/>
<path d="M521.539 93.0098C521.539 94.5254 520.302 95.7618 518.807 95.7618C517.311 95.7618 516.055 94.5254 516.055 93.0098C516.055 91.4942 517.291 90.2578 518.807 90.2578C520.322 90.2578 521.539 91.4942 521.539 93.0098Z" fill="#FAD4DB"/>
<path d="M716.191 67.3959C716.191 68.5924 715.234 69.5496 714.037 69.5496C712.841 69.5496 711.884 68.5924 711.884 67.3959C711.884 66.1994 712.841 65.2422 714.037 65.2422C715.234 65.2422 716.191 66.1994 716.191 67.3959Z" fill="#FAD4DB"/>
<path d="M650.204 121.803C650.204 122.8 649.406 123.597 648.409 123.597C647.412 123.597 646.614 122.8 646.614 121.803C646.614 120.805 647.412 120.008 648.409 120.008C649.406 120.008 650.204 120.805 650.204 121.803Z" fill="#FAD4DB"/>
<path d="M627.929 64.2016C627.929 66.1559 626.353 67.7313 624.399 67.7313C622.445 67.7313 620.869 66.1559 620.869 64.2016C620.869 62.2473 622.445 60.6719 624.399 60.6719C626.353 60.6719 627.929 62.2473 627.929 64.2016Z" fill="#FAD4DB"/>
<path d="M641.211 94.6075C641.211 95.9236 640.134 96.9805 638.838 96.9805C637.542 96.9805 636.465 95.9236 636.465 94.6075C636.465 93.2913 637.522 92.2344 638.838 92.2344C640.154 92.2344 641.211 93.2913 641.211 94.6075Z" fill="#FAD4DB"/>
<path d="M545.849 54.6023C545.849 56.2974 544.473 57.6535 542.778 57.6535C541.083 57.6535 539.707 56.2774 539.707 54.6023C539.707 52.9272 541.083 51.5312 542.778 51.5312C544.473 51.5312 545.849 52.9072 545.849 54.6023Z" fill="#FAD4DB"/>
<path d="M568.94 129.812C568.94 131.886 567.265 133.562 565.211 133.562C563.157 133.562 561.462 131.886 561.462 129.812C561.462 127.739 563.137 126.062 565.211 126.062C567.285 126.062 568.94 127.739 568.94 129.812Z" fill="#FAD4DB"/>
<path d="M576.538 80.2018C576.538 82.0564 575.043 83.552 573.188 83.552C571.334 83.552 569.838 82.0564 569.838 80.2018C569.838 78.3472 571.334 76.8516 573.188 76.8516C575.043 76.8516 576.538 78.3472 576.538 80.2018Z" fill="#FAD4DB"/>
<path d="M754.598 30.5912C754.598 31.7877 753.641 32.7449 752.445 32.7449C751.248 32.7449 750.291 31.7877 750.291 30.5912C750.291 29.3947 751.248 28.4375 752.445 28.4375C753.641 28.4375 754.598 29.3947 754.598 30.5912Z" fill="#FAD4DB"/>
<path d="M831.336 73.8057C831.336 75.8198 829.701 77.4551 827.686 77.4551C825.672 77.4551 824.037 75.8198 824.037 73.8057C824.037 71.7916 825.672 70.1562 827.686 70.1562C829.701 70.1562 831.336 71.7916 831.336 73.8057Z" fill="#FAD4DB"/>
<path d="M776.555 94.6072C776.555 96.4419 775.08 97.9176 773.245 97.9176C771.41 97.9176 769.935 96.4419 769.935 94.6072C769.935 92.7726 771.41 91.2969 773.245 91.2969C775.08 91.2969 776.555 92.7726 776.555 94.6072Z" fill="#FAD4DB"/>
<path d="M800.924 62.6068C800.924 64.6209 799.289 66.2761 797.255 66.2761C795.221 66.2761 793.605 64.6409 793.605 62.6068C793.605 60.5727 795.241 58.9375 797.255 58.9375C799.269 58.9375 800.924 60.5727 800.924 62.6068Z" fill="#FAD4DB"/>
<path d="M808.662 86.6116C808.662 87.6087 807.844 88.4263 806.847 88.4263C805.85 88.4263 805.032 87.6087 805.032 86.6116C805.032 85.6145 805.85 84.7969 806.847 84.7969C807.844 84.7969 808.662 85.6145 808.662 86.6116Z" fill="#FAD4DB"/>
<path d="M844.856 28.995C844.856 30.5305 843.599 31.7868 842.064 31.7868C840.528 31.7868 839.272 30.5305 839.272 28.995C839.272 27.4595 840.528 26.2031 842.064 26.2031C843.599 26.2031 844.856 27.4595 844.856 28.995Z" fill="#FAD4DB"/>
<path d="M844.139 134.618C844.139 136.632 842.503 138.267 840.489 138.267C838.475 138.267 836.84 136.632 836.84 134.618C836.84 132.604 838.475 130.969 840.489 130.969C842.503 130.969 844.139 132.604 844.139 134.618Z" fill="#FAD4DB"/>
<path d="M60.6036 107.408C60.6036 108.924 59.3672 110.16 57.8516 110.16C56.336 110.16 55.0996 108.924 55.0996 107.408C55.0996 105.893 56.336 104.656 57.8516 104.656C59.3672 104.656 60.6036 105.893 60.6036 107.408Z" fill="#FAD4DB"/>
<path d="M6.89988 83.4031C6.89988 85.2975 5.36435 86.853 3.44993 86.853C1.53551 86.853 0 85.3175 0 83.4031C0 81.4887 1.53551 79.9531 3.44993 79.9531C5.36435 79.9531 6.89988 81.4887 6.89988 83.4031Z" fill="#FAD4DB"/>
<path d="M919.876 181.694C919.876 182.711 919.059 183.529 918.042 183.529C917.025 183.529 916.227 182.711 916.227 181.694C916.227 180.677 917.045 179.859 918.042 179.859C919.039 179.859 919.876 180.677 919.876 181.694Z" fill="#FAD4DB"/>
<path d="M247.099 50.4313C247.099 51.7275 246.042 52.7844 244.746 52.7844C243.449 52.7844 242.393 51.7275 242.393 50.4313C242.393 49.135 243.449 48.0781 244.746 48.0781C246.042 48.0781 247.099 49.135 247.099 50.4313Z" fill="#FAD4DB"/>
<path d="M267.339 82.821C267.339 84.9349 265.624 86.6499 263.51 86.6499C261.397 86.6499 259.682 84.9349 259.682 82.821C259.682 80.7072 261.397 78.9922 263.51 78.9922C265.624 78.9922 267.339 80.7072 267.339 82.821Z" fill="#FAD4DB"/>
<path d="M310.054 57.2567C310.054 59.4303 308.299 61.2051 306.126 61.2051C303.952 61.2051 302.197 59.4503 302.197 57.2567C302.197 55.0631 303.952 53.3281 306.126 53.3281C308.299 53.3281 310.054 55.083 310.054 57.2567Z" fill="#FAD4DB"/>
<path d="M669.387 139.071C669.387 140.128 668.53 140.985 667.473 140.985C666.416 140.985 665.559 140.128 665.559 139.071C665.559 138.014 666.416 137.156 667.473 137.156C668.53 137.156 669.387 138.014 669.387 139.071Z" fill="#FAD4DB"/>
<path d="M622.046 38.5121C622.046 39.7883 621.009 40.8054 619.752 40.8054C618.496 40.8054 617.459 39.7684 617.459 38.5121C617.459 37.2557 618.476 36.2188 619.752 36.2188C621.029 36.2188 622.046 37.2358 622.046 38.5121Z" fill="#FAD4DB"/>
<path d="M872.834 38.5092C872.834 39.9051 871.697 41.0418 870.301 41.0418C868.905 41.0418 867.769 39.9051 867.769 38.5092C867.769 37.1132 868.905 35.9766 870.301 35.9766C871.697 35.9766 872.834 37.1132 872.834 38.5092Z" fill="#FAD4DB"/>
<path d="M892.616 41.9171C892.616 42.9341 891.778 43.7717 890.761 43.7717C889.744 43.7717 888.906 42.9341 888.906 41.9171C888.906 40.9001 889.744 40.0625 890.761 40.0625C891.778 40.0625 892.616 40.9001 892.616 41.9171Z" fill="#FAD4DB"/>
<path d="M964.447 26.5861C964.447 27.7427 963.51 28.68 962.353 28.68C961.197 28.68 960.259 27.7427 960.259 26.5861C960.259 25.4295 961.197 24.4922 962.353 24.4922C963.51 24.4922 964.447 25.4295 964.447 26.5861Z" fill="#FAD4DB"/>
<path d="M1045.39 98.1736C1045.39 99.7889 1044.07 101.105 1042.46 101.105C1040.84 101.105 1039.53 99.7889 1039.53 98.1736C1039.53 96.5584 1040.84 95.2422 1042.46 95.2422C1044.07 95.2422 1045.39 96.5584 1045.39 98.1736Z" fill="#FAD4DB"/>
<path d="M981.098 190.203C981.098 191.14 980.34 191.898 979.403 191.898C978.466 191.898 977.708 191.14 977.708 190.203C977.708 189.266 978.466 188.508 979.403 188.508C980.34 188.508 981.098 189.266 981.098 190.203Z" fill="#FAD4DB"/>
<path d="M1086.67 198.744C1086.67 200.558 1085.19 202.034 1083.38 202.034C1081.56 202.034 1080.09 200.558 1080.09 198.744C1080.09 196.929 1081.56 195.453 1083.38 195.453C1085.19 195.453 1086.67 196.929 1086.67 198.744Z" fill="#FAD4DB"/>
<path d="M1039.15 251.568C1039.15 253.502 1037.57 255.058 1035.66 255.058C1033.74 255.058 1032.17 253.502 1032.17 251.568C1032.17 249.634 1033.72 248.078 1035.66 248.078C1037.59 248.078 1039.15 249.634 1039.15 251.568Z" fill="#FAD4DB"/>
<path d="M816.26 244.752C816.26 246.906 814.525 248.661 812.351 248.661C810.177 248.661 808.442 246.906 808.442 244.752C808.442 242.599 810.197 240.844 812.351 240.844C814.505 240.844 816.26 242.599 816.26 244.752Z" fill="#FAD4DB"/>
<path d="M869.524 237.948C869.524 239.384 868.347 240.561 866.911 240.561C865.475 240.561 864.299 239.384 864.299 237.948C864.299 236.513 865.475 235.336 866.911 235.336C868.347 235.336 869.524 236.513 869.524 237.948Z" fill="#FAD4DB"/>
<path d="M362.023 31.6917C362.023 33.3868 360.647 34.7428 358.972 34.7428C357.297 34.7428 355.921 33.3668 355.921 31.6917C355.921 30.0166 357.297 28.6406 358.972 28.6406C360.647 28.6406 362.023 30.0166 362.023 31.6917Z" fill="#FAD4DB"/>
<path d="M534.381 38.5048C534.381 40.3196 532.925 41.7753 531.11 41.7753C529.296 41.7753 527.84 40.3196 527.84 38.5048C527.84 36.6901 529.296 35.2344 531.11 35.2344C532.925 35.2344 534.381 36.6901 534.381 38.5048Z" fill="#FAD4DB"/>
<path d="M1005.51 135.671C1005.51 137.844 1003.75 139.599 1001.58 139.599C999.404 139.599 997.649 137.844 997.649 135.671C997.649 133.497 999.404 131.742 1001.58 131.742C1003.75 131.742 1005.51 133.497 1005.51 135.671Z" fill="#FAD4DB"/>
<path d="M1152 239.646C1152 241.779 1150.26 243.494 1148.15 243.494C1146.04 243.494 1144.3 241.779 1144.3 239.646C1144.3 237.512 1146.02 235.797 1148.15 235.797C1150.28 235.797 1152 237.512 1152 239.646Z" fill="#FAD4DB"/>
<path d="M1055.32 45.3354C1055.32 46.7912 1054.14 47.9678 1052.69 47.9678C1051.23 47.9678 1050.06 46.7912 1050.06 45.3354C1050.06 43.8797 1051.23 42.7031 1052.69 42.7031C1054.14 42.7031 1055.32 43.8797 1055.32 45.3354Z" fill="#FAD4DB"/>
<path d="M497.229 21.461C497.229 23.4552 495.613 25.0705 493.619 25.0705C491.625 25.0705 490.01 23.4552 490.01 21.461C490.01 19.4668 491.625 17.8516 493.619 17.8516C495.613 17.8516 497.229 19.4668 497.229 21.461Z" fill="#FAD4DB"/>
<path d="M412.217 58.9697C412.217 60.1463 411.26 61.1035 410.083 61.1035C408.906 61.1035 407.949 60.1463 407.949 58.9697C407.949 57.7931 408.906 56.8359 410.083 56.8359C411.26 56.8359 412.217 57.7931 412.217 58.9697Z" fill="#FAD4DB"/>
<path d="M279.165 23.1744C279.165 25.2284 277.49 26.9036 275.436 26.9036C273.382 26.9036 271.707 25.2284 271.707 23.1744C271.707 21.1204 273.382 19.4453 275.436 19.4453C277.49 19.4453 279.165 21.1204 279.165 23.1744Z" fill="#FAD4DB"/>
<path d="M698.123 60.667C698.123 62.5216 696.608 64.0372 694.753 64.0372C692.898 64.0372 691.383 62.5216 691.383 60.667C691.383 58.8125 692.898 57.2969 694.753 57.2969C696.608 57.2969 698.123 58.8125 698.123 60.667Z" fill="#FAD4DB"/>
<path d="M730.747 58.9726C730.747 60.0295 729.889 60.8671 728.832 60.8671C727.776 60.8671 726.918 60.0096 726.918 58.9726C726.918 57.9356 727.776 57.0781 728.832 57.0781C729.889 57.0781 730.747 57.9356 730.747 58.9726Z" fill="#FAD4DB"/>
<path d="M957.267 220.902C957.267 221.859 956.489 222.617 955.552 222.617C954.615 222.617 953.837 221.839 953.837 220.902C953.837 219.964 954.615 219.188 955.552 219.188C956.489 219.188 957.267 219.964 957.267 220.902Z" fill="#FAD4DB"/>
<path d="M408.847 72.6109C408.847 74.7447 407.112 76.4796 404.978 76.4796C402.844 76.4796 401.109 74.7447 401.109 72.6109C401.109 70.4771 402.844 68.7422 404.978 68.7422C407.112 68.7422 408.847 70.4771 408.847 72.6109Z" fill="#FAD4DB"/>
<path d="M468.712 74.3106C468.712 75.6267 467.655 76.6837 466.339 76.6837C465.023 76.6837 463.966 75.6267 463.966 74.3106C463.966 72.9944 465.023 71.9375 466.339 71.9375C467.655 71.9375 468.712 72.9944 468.712 74.3106Z" fill="#FAD4DB"/>
<path d="M758.248 67.4932C758.248 68.6697 757.291 69.6269 756.114 69.6269C754.938 69.6269 753.98 68.6697 753.98 67.4932C753.98 66.3166 754.938 65.3594 756.114 65.3594C757.291 65.3594 758.248 66.3166 758.248 67.4932Z" fill="#FAD4DB"/>
<path d="M752.665 123.734C752.665 125.608 751.149 127.124 749.275 127.124C747.4 127.124 745.885 125.608 745.885 123.734C745.885 121.859 747.4 120.344 749.275 120.344C751.149 120.344 752.665 121.859 752.665 123.734Z" fill="#FAD4DB"/>
<path d="M727.517 86.2267C727.517 87.3833 726.58 88.3206 725.424 88.3206C724.267 88.3206 723.35 87.3833 723.35 86.2267C723.35 85.0701 724.287 84.1328 725.424 84.1328C726.56 84.1328 727.517 85.0701 727.517 86.2267Z" fill="#FAD4DB"/>
<path d="M793.126 116.927C793.126 118.542 791.81 119.859 790.214 119.859C788.619 119.859 787.303 118.542 787.303 116.927C787.303 115.312 788.619 114.016 790.214 114.016C791.81 114.016 793.126 115.332 793.126 116.927Z" fill="#FAD4DB"/>
<path d="M1000.44 89.6527C1000.44 90.929 999.425 91.946 998.149 91.946C996.873 91.946 995.855 90.909 995.855 89.6527C995.855 88.3964 996.873 87.3594 998.149 87.3594C999.425 87.3594 1000.44 88.3964 1000.44 89.6527Z" fill="#FAD4DB"/>
<path d="M930.166 147.602C930.166 148.659 929.309 149.516 928.252 149.516C927.195 149.516 926.337 148.659 926.337 147.602C926.337 146.545 927.195 145.688 928.252 145.688C929.309 145.688 930.166 146.545 930.166 147.602Z" fill="#FAD4DB"/>
<path d="M906.455 86.2335C906.455 88.3074 904.78 89.9825 902.706 89.9825C900.632 89.9825 898.957 88.3074 898.957 86.2335C898.957 84.1595 900.632 82.4844 902.706 82.4844C904.78 82.4844 906.455 84.1595 906.455 86.2335Z" fill="#FAD4DB"/>
<path d="M920.574 118.619C920.574 120.014 919.438 121.151 918.042 121.151C916.646 121.151 915.509 120.014 915.509 118.619C915.509 117.223 916.646 116.086 918.042 116.086C919.438 116.086 920.574 117.223 920.574 118.619Z" fill="#FAD4DB"/>
<path d="M819.031 76.0205C819.031 77.8152 817.575 79.271 815.76 79.271C813.946 79.271 812.51 77.8152 812.51 76.0205C812.51 74.2257 813.966 72.75 815.76 72.75C817.555 72.75 819.031 74.2058 819.031 76.0205Z" fill="#FAD4DB"/>
<path d="M843.619 156.129C843.619 158.323 841.844 160.117 839.63 160.117C837.417 160.117 835.642 158.343 835.642 156.129C835.642 153.915 837.417 152.141 839.63 152.141C841.844 152.141 843.619 153.915 843.619 156.129Z" fill="#FAD4DB"/>
<path d="M851.714 103.288C851.714 105.263 850.119 106.858 848.145 106.858C846.171 106.858 844.575 105.263 844.575 103.288C844.575 101.314 846.171 99.7188 848.145 99.7188C850.119 99.7188 851.714 101.314 851.714 103.288Z" fill="#FAD4DB"/>
<path d="M1041.34 50.4339C1041.34 51.6903 1040.33 52.7272 1039.05 52.7272C1037.77 52.7272 1036.76 51.7102 1036.76 50.4339C1036.76 49.1577 1037.79 48.1406 1039.05 48.1406C1040.31 48.1406 1041.34 49.1577 1041.34 50.4339Z" fill="#FAD4DB"/>
<path d="M1123.06 96.459C1123.06 98.6127 1121.33 100.348 1119.17 100.348C1117.02 100.348 1115.29 98.6127 1115.29 96.459C1115.29 94.3052 1117.02 92.5703 1119.17 92.5703C1121.33 92.5703 1123.06 94.3252 1123.06 96.459Z" fill="#FAD4DB"/>
<path d="M1064.75 118.623C1064.75 120.578 1063.18 122.153 1061.22 122.153C1059.27 122.153 1057.69 120.578 1057.69 118.623C1057.69 116.669 1059.27 115.094 1061.22 115.094C1063.18 115.094 1064.75 116.669 1064.75 118.623Z" fill="#FAD4DB"/>
<path d="M1090.68 84.5336C1090.68 86.6873 1088.92 88.4422 1086.79 88.4422C1084.66 88.4422 1082.88 86.6873 1082.88 84.5336C1082.88 82.3799 1084.64 80.625 1086.79 80.625C1088.94 80.625 1090.68 82.3799 1090.68 84.5336Z" fill="#FAD4DB"/>
<path d="M1098.93 110.098C1098.93 111.155 1098.08 112.033 1097.02 112.033C1095.96 112.033 1095.09 111.175 1095.09 110.098C1095.09 109.022 1095.94 108.164 1097.02 108.164C1098.1 108.164 1098.93 109.022 1098.93 110.098Z" fill="#FAD4DB"/>
<path d="M1137.48 48.7448C1137.48 50.38 1136.15 51.7161 1134.51 51.7161C1132.88 51.7161 1131.54 50.38 1131.54 48.7448C1131.54 47.1095 1132.88 45.7734 1134.51 45.7734C1136.15 45.7734 1137.48 47.1095 1137.48 48.7448Z" fill="#FAD4DB"/>
<path d="M1136.7 161.232C1136.7 163.386 1134.97 165.121 1132.82 165.121C1130.66 165.121 1128.93 163.386 1128.93 161.232C1128.93 159.079 1130.66 157.344 1132.82 157.344C1134.97 157.344 1136.7 159.079 1136.7 161.232Z" fill="#FAD4DB"/>
<path d="M245.005 106.693C245.005 108.727 243.369 110.362 241.335 110.362C239.301 110.362 237.666 108.727 237.666 106.693C237.666 104.659 239.301 103.023 241.335 103.023C243.369 103.023 245.005 104.659 245.005 106.693Z" fill="#FAD4DB"/>
</g>
<g clip-path="url(#clip2_6610_4916)">
<g opacity="0.82">
<path d="M446.541 508.718C451.596 509.588 463.491 505.868 468.246 505.178C460.896 518.603 450.771 528.263 440.151 538.973C445.941 541.733 454.941 534.203 461.421 534.398C458.451 547.583 444.156 556.703 437.661 568.584C443.241 569.604 462.396 565.899 462.396 565.899C456.621 576.099 443.901 593.274 436.086 602.439C455.361 603.429 464.346 600.024 485.422 589.674C506.932 595.869 508.702 605.754 531.562 602.604C525.937 592.824 515.707 576.879 513.052 568.389C520.582 569.064 522.757 573.879 530.482 573.459C519.532 559.268 514.102 550.028 506.227 537.953C514.267 541.868 517.057 542.543 528.517 542.948C519.082 524.273 512.782 516.743 506.872 502.868C514.192 504.188 516.142 506.693 523.312 508.673C508.762 497.798 505.417 486.308 498.427 472.807C503.857 476.257 508.417 476.332 514.987 476.842C506.767 462.697 504.367 455.992 497.692 440.887C499.777 442.147 507.187 444.607 507.187 444.607C502.702 437.077 492.922 415.567 487.702 388.281C483.802 410.677 481.027 416.572 467.346 444.352C472.116 443.317 476.676 441.547 481.402 441.232C473.871 452.842 465.471 464.092 456.891 474.817C462.231 474.382 472.161 473.557 476.976 471.202C476.976 471.202 452.046 502.898 446.511 508.718H446.541Z" fill="url(#paint0_linear_6610_4916)"/>
<path d="M16.0652 404.315C23.8353 405.665 42.1055 399.935 49.4106 398.885C38.1155 419.51 22.5603 434.345 6.24008 450.8C15.1352 455.045 28.9654 443.48 38.9255 443.765C34.3654 464.03 12.4052 478.041 2.41503 496.296C10.9801 497.856 40.4105 492.171 40.4105 492.171C31.5454 507.831 12.0002 534.216 0 548.317C29.6104 549.832 43.4106 544.611 75.811 528.696C108.871 538.221 111.586 553.402 146.702 548.557C138.047 533.541 122.342 509.031 118.262 495.981C129.827 497.016 133.172 504.426 145.052 503.781C128.222 481.986 119.867 467.765 107.776 449.21C120.122 455.225 124.427 456.26 142.022 456.875C127.517 428.195 117.842 416.615 108.766 395.285C120.002 397.325 123.002 401.165 134.027 404.195C111.661 387.499 106.546 369.814 95.7912 349.099C104.131 354.409 111.136 354.514 121.247 355.294C108.616 333.559 104.926 323.269 94.6662 300.048C97.8613 301.998 109.261 305.778 109.261 305.778C102.361 294.213 87.3311 261.153 79.321 219.242C73.336 253.638 69.0609 262.698 48.0456 305.388C55.3657 303.798 62.3708 301.083 69.6459 300.588C58.0808 318.424 45.1656 335.704 31.9954 352.189C40.2005 351.514 55.4707 350.239 62.8508 346.624C62.8508 346.624 24.5553 395.345 16.0352 404.27L16.0652 404.315Z" fill="url(#paint1_linear_6610_4916)"/>
<path d="M107.237 423.952C112.863 424.927 126.093 420.772 131.373 420.022C123.198 434.962 111.933 445.702 100.127 457.597C106.562 460.672 116.583 452.287 123.798 452.512C120.498 467.182 104.597 477.322 97.3673 490.538C103.577 491.678 124.878 487.553 124.878 487.553C118.458 498.878 104.312 517.988 95.6123 528.188C117.048 529.283 127.038 525.518 150.498 513.998C174.423 520.883 176.388 531.893 201.829 528.383C195.559 517.508 184.188 499.763 181.233 490.328C189.604 491.078 192.034 496.433 200.629 495.968C188.449 480.187 182.403 469.897 173.643 456.472C182.583 460.822 185.688 461.572 198.439 462.022C187.938 441.262 180.933 432.877 174.363 417.442C182.493 418.927 184.668 421.702 192.649 423.892C176.463 411.802 172.758 399.006 164.973 384.006C171.018 387.846 176.088 387.921 183.393 388.491C174.243 372.756 171.573 365.301 164.163 348.501C166.473 349.911 174.738 352.641 174.738 352.641C169.743 344.271 158.868 320.345 153.063 290C148.728 314.9 145.638 321.455 130.428 352.356C135.738 351.201 140.793 349.236 146.073 348.891C137.703 361.806 128.358 374.316 118.818 386.256C124.758 385.776 135.813 384.846 141.153 382.221C141.153 382.221 113.433 417.487 107.267 423.952H107.237Z" fill="url(#paint2_linear_6610_4916)"/>
<path d="M203.838 465.714C209.223 466.644 221.883 462.669 226.938 461.949C219.108 476.244 208.338 486.519 197.028 497.919C203.193 500.859 212.778 492.849 219.678 493.044C216.528 507.084 201.303 516.79 194.388 529.435C200.328 530.515 220.713 526.57 220.713 526.57C214.563 537.415 201.033 555.7 192.708 565.465C213.228 566.515 222.783 562.9 245.224 551.875C268.129 558.46 270.004 568.99 294.334 565.63C288.349 555.22 277.459 538.24 274.624 529.21C282.634 529.93 284.959 535.06 293.179 534.61C281.524 519.52 275.734 509.664 267.364 496.809C275.914 500.979 278.899 501.684 291.094 502.119C281.044 482.244 274.339 474.219 268.054 459.444C275.839 460.869 277.924 463.509 285.544 465.624C270.049 454.059 266.509 441.804 259.054 427.448C264.829 431.123 269.689 431.198 276.694 431.753C267.934 416.693 265.384 409.568 258.289 393.473C260.509 394.823 268.399 397.433 268.399 397.433C263.614 389.423 253.204 366.518 247.654 337.492C243.514 361.327 240.544 367.598 225.993 397.178C231.064 396.068 235.924 394.193 240.964 393.848C232.954 406.208 224.013 418.178 214.878 429.608C220.563 429.143 231.139 428.258 236.254 425.753C236.254 425.753 209.718 459.504 203.823 465.684L203.838 465.714Z" fill="url(#paint3_linear_6610_4916)"/>
<path d="M292.354 506.812C297.514 507.697 309.649 503.902 314.494 503.212C306.994 516.907 296.659 526.762 285.829 537.682C291.739 540.502 300.919 532.822 307.534 533.017C304.504 546.472 289.924 555.773 283.294 567.893C288.979 568.928 308.524 565.148 308.524 565.148C302.629 575.543 289.654 593.063 281.688 602.423C301.354 603.428 310.519 599.963 332.029 589.403C353.974 595.718 355.774 605.813 379.1 602.588C373.355 592.613 362.93 576.338 360.215 567.683C367.895 568.373 370.115 573.293 378.005 572.858C366.83 558.383 361.28 548.947 353.254 536.632C361.46 540.622 364.31 541.312 375.995 541.717C366.365 522.682 359.93 514.972 353.914 500.827C361.37 502.177 363.365 504.727 370.685 506.752C355.834 495.667 352.429 483.922 345.304 470.166C350.839 473.691 355.489 473.766 362.21 474.291C353.824 459.861 351.364 453.021 344.569 437.601C346.699 438.891 354.259 441.396 354.259 441.396C349.669 433.716 339.694 411.771 334.369 383.945C330.394 406.791 327.559 412.806 313.609 441.156C318.469 440.091 323.119 438.291 327.949 437.976C320.269 449.826 311.704 461.301 302.944 472.251C308.389 471.816 318.529 470.961 323.434 468.561C323.434 468.561 297.994 500.902 292.354 506.842V506.812Z" fill="url(#paint4_linear_6610_4916)"/>
<path d="M404.571 504.205C408.426 504.925 417.471 501.864 421.086 501.309C415.491 512.304 407.781 520.224 399.696 528.999C404.106 531.264 410.961 525.099 415.896 525.249C413.646 536.064 402.756 543.52 397.806 553.255C402.051 554.095 416.631 551.064 416.631 551.064C412.236 559.405 402.546 573.491 396.605 581.006C411.276 581.816 418.116 579.04 434.166 570.55C450.546 575.62 451.896 583.736 469.296 581.141C465.006 573.131 457.221 560.066 455.196 553.105C460.926 553.66 462.591 557.605 468.471 557.26C460.131 545.635 455.991 538.059 450.006 528.16C456.126 531.355 458.256 531.91 466.971 532.255C459.786 516.955 454.986 510.775 450.486 499.42C456.051 500.5 457.536 502.555 462.996 504.175C451.911 495.265 449.376 485.844 444.051 474.788C448.191 477.608 451.656 477.684 456.666 478.104C450.411 466.509 448.581 461.034 443.496 448.644C445.086 449.694 450.726 451.704 450.726 451.704C447.306 445.539 439.866 427.899 435.891 405.562C432.921 423.909 430.806 428.739 420.396 451.493C424.026 450.638 427.491 449.198 431.106 448.943C425.376 458.453 418.971 467.678 412.446 476.468C416.511 476.108 424.071 475.418 427.731 473.498C427.731 473.498 408.756 499.48 404.541 504.235L404.571 504.205Z" fill="url(#paint5_linear_6610_4916)"/>
<path d="M1136.67 414.781C1129.08 416.056 1111.21 410.371 1104.09 409.336C1115.07 429.556 1130.25 444.121 1146.16 460.277C1137.45 464.387 1123.96 453.017 1114.21 453.257C1118.61 473.087 1140.06 486.887 1149.76 504.782C1141.38 506.282 1112.62 500.582 1112.62 500.582C1121.26 515.927 1140.3 541.818 1152 555.648C1123.05 556.998 1109.56 551.838 1077.93 536.148C1045.59 545.313 1042.89 560.148 1008.55 555.258C1017.06 540.618 1032.48 516.722 1036.51 503.987C1025.2 504.947 1021.9 512.177 1010.29 511.487C1026.81 490.262 1035.01 476.387 1046.88 458.297C1034.79 464.117 1030.59 465.107 1013.37 465.647C1027.63 437.671 1037.13 426.376 1046.05 405.586C1035.06 407.536 1032.12 411.271 1021.33 414.196C1043.25 397.966 1048.3 380.701 1058.86 360.48C1050.69 365.64 1043.83 365.7 1033.96 366.435C1046.37 345.24 1050.01 335.19 1060.09 312.525C1056.96 314.415 1045.8 318.06 1045.8 318.06C1052.58 306.78 1067.37 274.529 1075.3 233.594C1081.06 267.254 1085.22 276.134 1105.65 317.955C1098.49 316.365 1091.65 313.68 1084.54 313.17C1095.81 330.66 1108.38 347.625 1121.22 363.795C1113.19 363.105 1098.27 361.785 1091.07 358.23C1091.07 358.23 1128.39 406.021 1136.68 414.796L1136.67 414.781Z" fill="url(#paint6_linear_6610_4916)"/>
<path d="M1082.52 397.748C1074.22 399.143 1054.74 392.948 1046.97 391.808C1058.95 413.873 1075.51 429.773 1092.87 447.398C1083.36 451.883 1068.64 439.478 1058.01 439.748C1062.81 461.393 1086.21 476.439 1096.8 495.969C1087.65 497.604 1056.27 491.379 1056.27 491.379C1065.69 508.134 1086.46 536.379 1099.23 551.455C1067.62 552.94 1052.92 547.3 1018.41 530.169C983.112 540.159 980.172 556.36 942.717 551.02C951.987 535.044 968.817 508.959 973.212 495.069C960.867 496.119 957.267 504.009 944.607 503.259C962.622 480.084 971.577 464.963 984.537 445.208C971.337 451.568 966.762 452.648 947.982 453.233C963.537 422.693 973.902 410.393 983.637 387.682C971.637 389.812 968.427 393.893 956.667 397.073C980.577 379.357 986.097 360.532 997.617 338.467C988.707 344.077 981.222 344.167 970.452 344.962C983.997 321.832 987.957 310.866 998.967 286.146C995.547 288.216 983.367 292.176 983.367 292.176C990.762 279.876 1006.9 244.671 1015.57 200C1021.86 236.736 1026.39 246.426 1048.68 292.056C1040.86 290.316 1033.41 287.391 1025.64 286.836C1037.92 305.916 1051.65 324.427 1065.66 342.067C1056.91 341.317 1040.62 339.877 1032.75 335.992C1032.75 335.992 1073.47 388.147 1082.52 397.718V397.748Z" fill="url(#paint7_linear_6610_4916)"/>
<path d="M985.183 418.272C979.183 419.277 965.068 414.792 959.443 413.967C968.128 429.943 980.113 441.448 992.684 454.213C985.798 457.468 975.133 448.483 967.453 448.678C970.933 464.338 987.868 475.243 995.533 489.373C988.903 490.558 966.193 486.058 966.193 486.058C973.018 498.179 988.048 518.639 997.288 529.559C974.413 530.624 963.763 526.559 938.773 514.154C913.227 521.384 911.097 533.114 883.977 529.244C890.682 517.679 902.877 498.794 906.057 488.728C897.117 489.493 894.522 495.194 885.342 494.668C898.377 477.898 904.857 466.948 914.247 452.653C904.692 457.258 901.377 458.038 887.772 458.458C899.037 436.348 906.537 427.438 913.587 411.012C904.902 412.557 902.577 415.497 894.072 417.807C911.382 404.982 915.372 391.362 923.713 375.372C917.262 379.437 911.847 379.497 904.032 380.082C913.842 363.342 916.707 355.407 924.673 337.511C922.198 339.011 913.377 341.876 913.377 341.876C918.732 332.966 930.403 307.481 936.688 275.141C941.248 301.736 944.518 308.741 960.658 341.786C955.003 340.526 949.603 338.411 943.978 338.006C952.873 351.837 962.803 365.217 972.958 377.997C966.628 377.457 954.838 376.407 949.138 373.587C949.138 373.587 978.613 411.342 985.168 418.272H985.183Z" fill="url(#paint8_linear_6610_4916)"/>
<path d="M881.997 462.349C876.252 463.324 862.752 459.019 857.367 458.224C865.677 473.509 877.137 484.519 889.167 496.744C882.582 499.849 872.382 491.254 865.017 491.449C868.347 506.45 884.562 516.875 891.897 530.39C885.567 531.53 863.817 527.21 863.817 527.21C870.342 538.82 884.742 558.38 893.577 568.835C871.692 569.855 861.492 565.955 837.581 554.09C813.131 561.02 811.091 572.24 785.141 568.535C791.561 557.465 803.231 539.405 806.276 529.76C797.726 530.495 795.236 535.955 786.461 535.445C798.941 519.395 805.151 508.91 814.121 495.229C804.971 499.639 801.806 500.389 788.786 500.794C799.571 479.644 806.741 471.109 813.491 455.389C805.181 456.874 802.946 459.694 794.801 461.899C811.361 449.629 815.186 436.579 823.166 421.293C816.986 425.179 811.811 425.239 804.341 425.794C813.731 409.773 816.476 402.168 824.096 385.038C821.726 386.478 813.296 389.223 813.296 389.223C818.411 380.703 829.601 356.313 835.601 325.367C839.966 350.808 843.101 357.528 858.537 389.148C853.122 387.948 847.947 385.923 842.576 385.533C851.082 398.748 860.592 411.573 870.312 423.798C864.252 423.273 852.957 422.283 847.511 419.583C847.511 419.583 875.727 455.719 881.997 462.349Z" fill="url(#paint9_linear_6610_4916)"/>
<path d="M787.435 505.781C781.93 506.711 769 502.586 763.825 501.836C771.79 516.491 782.77 527.036 794.305 538.752C787.99 541.737 778.21 533.486 771.16 533.666C774.34 548.037 789.88 558.027 796.915 571.002C790.84 572.082 770.005 567.957 770.005 567.957C776.26 579.072 790.06 597.837 798.535 607.857C777.55 608.847 767.785 605.112 744.864 593.727C721.434 600.372 719.484 611.127 694.599 607.572C700.749 596.967 711.939 579.642 714.849 570.417C706.659 571.122 704.259 576.357 695.859 575.862C707.829 560.472 713.769 550.437 722.379 537.312C713.619 541.527 710.574 542.247 698.094 542.637C708.429 522.356 715.299 514.181 721.779 499.106C713.814 500.516 711.684 503.231 703.869 505.346C719.739 493.586 723.399 481.076 731.064 466.421C725.139 470.156 720.174 470.201 713.019 470.726C722.004 455.365 724.644 448.09 731.949 431.68C729.684 433.045 721.599 435.685 721.599 435.685C726.504 427.525 737.229 404.14 742.974 374.484C747.159 398.875 750.159 405.31 764.965 435.61C759.774 434.455 754.824 432.52 749.664 432.145C757.824 444.82 766.945 457.105 776.245 468.821C770.44 468.326 759.61 467.366 754.389 464.786C754.389 464.786 781.435 499.421 787.435 505.766V505.781Z" fill="url(#paint10_linear_6610_4916)"/>
<path d="M667.719 502.485C663.609 503.235 653.949 499.92 650.094 499.32C656.034 511.08 664.224 519.555 672.834 528.96C668.124 531.361 660.834 524.745 655.569 524.895C657.954 536.431 669.534 544.456 674.784 554.866C670.254 555.736 654.699 552.436 654.699 552.436C659.364 561.361 669.654 576.436 675.984 584.476C660.324 585.271 653.034 582.271 635.933 573.151C618.443 578.491 616.988 587.116 598.418 584.281C603.008 575.761 611.363 561.841 613.538 554.431C607.418 555.001 605.633 559.201 599.363 558.811C608.288 546.451 612.728 538.381 619.148 527.865C612.608 531.24 610.343 531.826 601.028 532.141C608.738 515.85 613.883 509.295 618.713 497.175C612.773 498.315 611.168 500.49 605.348 502.185C617.198 492.735 619.928 482.685 625.643 470.925C621.218 473.925 617.513 473.97 612.173 474.39C618.878 462.06 620.858 456.21 626.303 443.024C624.608 444.119 618.578 446.249 618.578 446.249C622.238 439.694 630.248 420.914 634.538 397.094C637.643 416.684 639.894 421.844 650.934 446.189C647.064 445.259 643.374 443.699 639.518 443.399C645.609 453.569 652.404 463.44 659.349 472.845C655.014 472.455 646.944 471.675 643.044 469.605C643.044 469.605 663.219 497.415 667.704 502.515L667.719 502.485Z" fill="url(#paint11_linear_6610_4916)"/>
</g>
</g>
<g opacity="0.84">
<path d="M796.262 95.8242C797.022 96.2482 797.48 96.9625 797.691 97.8191C797.324 97.7272 796.939 97.6401 796.551 97.611C796.505 97.0145 796.406 96.4324 796.262 95.8242Z" fill="#F8C9D1"/>
<path d="M704.334 232.498C704.741 232.028 705.144 231.615 705.526 231.266C705.429 232.11 704.966 232.443 704.334 232.498Z" fill="#F8C9D1"/>
<path d="M725.226 134.908C724.923 134.913 724.643 134.931 724.34 134.936C724.264 133.872 724.014 132.798 723.663 131.77C723.828 131.82 724.638 132.003 724.807 131.995C724.814 132.374 724.82 132.753 724.862 133.122C725.093 133.631 725.202 134.248 725.226 134.908Z" fill="#F8C9D1"/>
<path d="M727.647 134.926C727.451 134.903 727.236 134.884 727.027 134.883C728.802 131.782 729.922 128.439 729.251 124.586C732.097 126.334 730.1 131.872 728.027 134.995C727.889 134.975 727.768 134.951 727.634 134.948L727.647 134.926Z" fill="#F8C9D1"/>
<path d="M715.6 138.59C712.415 141.612 713.363 143.089 715.221 143.066C714.276 144.156 713.345 145.224 712.396 146.296C712.769 146.196 713.169 146.127 713.546 146.045C712.787 147.542 713.142 148.797 714.019 149.798C714.037 149.794 714.06 149.807 714.082 149.82C714.33 149.753 714.597 149.682 714.881 149.606C718.063 148.848 731.518 151.215 731.706 153.904C731.897 157.03 722.178 158.949 720.157 160.423C714.02 164.92 724.799 173.064 726.959 176.937C727.704 178.297 728.028 179.789 728.04 181.326C729.777 181.489 731.52 182.03 733.274 182.473C732.925 182.661 732.594 182.845 732.24 183.016C728.694 184.689 725.414 184.94 721.643 185.209C720.842 185.271 720.036 185.316 719.222 185.401C717.215 185.577 715.384 186.125 714.027 186.527C713.618 186.636 713.126 186.787 712.873 186.836C712.752 186.811 712.609 186.774 712.488 186.749C711.127 187.418 709.783 188.082 708.417 188.734C708.196 188.831 707.975 188.928 707.771 189.021C705.832 187.676 703.587 186.965 700.367 186.021C699.807 185.848 699.252 185.692 698.696 185.537C698.293 184.314 695.144 186.051 695.5 187.097C697.538 189.518 709.713 205.639 692.376 209.581C692.456 209.312 672.082 203.91 684.81 193.271C685.772 192.462 699.093 179.99 699.295 178.757C704.418 175.939 708.441 170.581 708.611 165.323C708.726 162.059 708.157 158.445 708.78 155.444C706.724 154.873 705.609 153.479 704.185 151.787C705.647 151.49 707.378 151.35 709.058 151.584C708.241 151.233 707.445 150.818 706.644 150.386C706.652 150.555 706.632 150.694 706.177 150.701C704.683 149.314 703.07 148.262 701.487 147.184C702.003 147.901 702.541 148.632 703.057 149.35C701.902 148.803 701.295 147.958 701.024 146.946C697.772 146.239 694.357 145.347 692.282 144.134C693.497 143.485 695.374 143.534 697.135 143.861C696.496 143.252 695.889 142.616 695.323 141.855C694.918 141.335 694.553 140.825 694.187 140.314C691.63 139.572 688.59 139.797 686.223 140.051C688.361 138.09 690.61 138.533 693.032 138.626C691.363 136.163 689.809 133.84 687.442 131.679C692.092 132.068 693.914 136.24 695.947 139.709C696.58 140.795 697.193 141.734 697.831 142.552C695.641 137.433 700.963 132.944 701.084 127.719C703.648 129.124 699.921 135.658 699.504 138.147C699.196 139.98 699.308 141.605 699.862 143.035C700.475 139.713 702.934 137.818 704.278 134.528C703.698 137.119 701.257 141.425 700.905 144.867C701.155 145.161 701.427 145.469 701.713 145.754C702.599 146.22 703.502 146.682 704.388 147.148C703.968 144.94 706.26 142.348 707.022 140.223C706.963 142.064 706.108 146.041 707.115 148.453C708.511 148.764 709.962 148.926 711.397 149.17C710.159 146.039 712.158 141.148 713.987 138.604C714.148 138.351 714.331 138.112 714.514 137.873C714.284 138.01 714.078 138.161 713.848 138.298C713.672 138.422 713.509 138.522 713.328 138.628C714.29 137.533 714.822 136.325 715.037 135.069C715.394 135.335 715.768 135.596 716.12 135.845C716.661 136.232 717.19 136.642 717.682 137.062C716.821 137.54 716.072 138.007 715.554 138.488L715.6 138.59Z" fill="#F8C9D1"/>
<path d="M628.044 214.684C628.456 214.516 629.659 214.251 631.165 213.98C633.452 213.995 635.355 213.999 635.868 213.995C634.817 214.048 627.831 214.741 628.039 214.666L628.044 214.684Z" fill="#F8C9D1"/>
<path d="M635.866 213.993C635.866 213.993 636.017 213.99 636 213.995C636 213.995 635.946 214.009 635.866 213.993Z" fill="#F8C9D1"/>
<path d="M329.802 295.377C328.109 294.099 326.302 292.396 324.834 290.963C323.444 290.746 322.05 290.511 320.66 290.294C312.383 288.936 304.583 287.583 297.077 286.474C297.262 285.531 297.447 284.587 297.631 283.644C305.155 284.748 312.96 286.118 321.254 287.472C322.966 287.755 324.673 288.02 326.385 288.303C329.407 285.953 331.974 282.26 333.774 278.753C333.929 278.198 334.041 277.692 334.043 277.273C334.169 277.316 334.312 277.353 334.437 277.396C334.519 277.203 334.605 277.028 334.686 276.835C332.445 275.78 330.341 274.461 329.259 272.906C326.226 268.545 324.449 262.763 323.905 257.469C323.317 251.653 323.548 247.407 319.674 242.815C316.072 238.53 309.909 236.187 313.345 229.274C316.025 230.401 318.267 230.961 320.421 231.829C323.048 229.566 326.394 228.707 328.517 226.693C326.324 224.541 326.577 220.022 327.342 217.268C327.938 217.432 328.53 217.654 329.078 217.926C329.031 217.748 328.978 217.553 328.926 217.358C329.297 217.677 329.646 218.059 330.005 218.476C331.082 219.158 332.019 220.029 332.776 221.005C332.773 219.789 333.677 218.405 333.789 217.12C334.261 217.393 334.565 217.673 334.819 217.985C334.929 217.613 335.026 217.264 335.069 216.929C336.787 223.126 339.791 220.495 335.603 226.943C337.81 229.357 342.596 236.501 342.434 241.433C342.862 241.471 343.286 241.49 343.715 241.528C341.393 235.987 340.789 229.757 345.412 225.076C351.141 225.158 345.013 220.96 344.121 219.05C342.767 216.198 343.428 210.999 345.428 208.028C350.415 200.586 359.086 203.132 363.581 207.768C365.674 204.22 372.787 208.972 367.67 212.949C364.216 215.605 357.622 211.723 362.244 209.096C360.817 203.201 353.377 210.292 354.788 213.852C356.444 217.973 364.326 212.818 365.776 219.011C373.281 215.573 377.738 224.612 373.438 228.37C374.788 235.75 381.467 235.616 385.722 230.557C388.016 227.831 388.867 226.462 388.52 223.036C388.222 219.939 385.691 219.153 387.831 215.498C387.881 215.541 389.037 215.879 389.135 215.89C388.526 220.219 390.525 219.303 392.253 217.946C392.363 217.289 392.562 216.684 392.874 216.144C393.166 216.313 393.477 216.477 393.787 216.641C394.199 216.264 394.549 215.866 394.836 215.447C394.678 214.5 394.775 213.656 395.142 212.968C395.488 213.123 395.829 213.26 396.175 213.414C396.934 212.412 397.841 212.036 400.071 213.473C403.973 215.966 402.169 218.675 400.225 221.288C401.575 222.848 403.373 224.591 405.642 226.456C409.144 229.303 418.331 236.047 434.417 242.199C435.72 238.616 436.731 234.864 438.674 232.461C436.685 230.217 436.43 226.214 438.257 223.804C440.718 226.245 442.197 227.789 442.996 229.99C443.494 229.933 444.029 229.942 444.591 229.981C445.817 230.014 447.044 230.047 448.247 230.067C448.695 230.46 451.648 230.62 454.305 231.734C458.426 233.483 461.778 235.343 466.545 235.53C473.28 235.818 480.816 231.859 483.296 226.135C484.605 223.14 485.409 219.539 487.077 216.961C485.371 215.706 484.852 213.981 484.144 211.908C485.597 212.146 487.272 212.648 488.743 213.453C488.117 212.821 487.505 212.167 486.94 211.482C486.872 211.652 486.802 211.747 486.403 211.607C485.499 209.795 484.394 208.227 483.307 206.654C483.54 207.523 483.768 208.375 483.984 209.25C483.108 208.324 482.842 207.33 482.958 206.272C480.186 204.447 477.322 202.418 475.846 200.531C477.207 200.356 478.944 201.089 480.443 202C480.078 201.204 479.743 200.381 479.483 199.48C479.312 198.841 479.15 198.238 478.988 197.635C476.867 196.035 473.968 195.156 471.654 194.54C474.355 193.474 476.296 194.685 478.514 195.65C477.832 192.752 477.234 190.021 475.804 187.17C480.001 189.203 480.211 193.75 480.835 197.71C481.034 198.951 481.271 200.047 481.555 201.036C481.359 195.478 487.947 193.161 489.943 188.327C491.816 190.564 485.983 195.342 484.7 197.512C483.76 199.114 483.264 200.673 483.259 202.216C485.033 199.325 488.009 198.432 490.452 195.837C488.97 198.042 485.141 201.217 483.571 204.301C483.671 204.673 483.828 205.049 484.004 205.421C484.681 206.172 485.34 206.927 485.999 207.683C486.416 205.478 489.487 203.876 490.964 202.148C490.239 203.845 487.997 207.261 488.068 209.867C489.249 210.654 490.535 211.337 491.795 212.064C491.769 208.704 495.43 204.832 498.053 203.121C498.313 202.956 498.556 202.796 498.816 202.631C498.568 202.698 498.292 202.734 498.039 202.783C497.843 202.835 497.643 202.869 497.443 202.904C497.978 202.628 498.44 202.294 498.845 201.958C499.096 202.328 499.352 202.716 499.608 203.104C499.7 203.232 499.773 203.364 499.842 203.479C499.753 203.502 499.647 203.531 499.567 203.59C492.848 206.342 498.152 209.239 501.799 207.234C501.957 207.61 502.115 207.986 502.278 208.38C502.278 208.38 502.278 208.38 502.26 208.385C500.65 208.056 498.893 208.032 496.939 208.974C496.307 209.029 495.74 209.181 495.282 209.532C494.983 209.764 494.742 210 494.536 210.226C493.803 210.613 493.052 211.005 492.318 211.391C492.832 211.463 493.346 211.534 493.842 211.611C493.723 212.232 493.796 212.859 494.016 213.466C494.016 213.466 494.043 213.497 494.065 213.51C494.333 213.514 494.605 213.537 494.882 213.577C495.864 213.694 497.602 214.427 499.531 215.45C500.184 216.112 500.85 216.752 501.502 217.414C503.157 219.044 505.799 220.6 508.429 221.968C508.903 222.602 509.131 223.169 508.983 223.608C508.012 226.588 498.246 224.925 495.82 225.594C488.469 227.621 495.471 239.059 496.022 243.458C496.204 244.988 495.944 246.503 495.38 247.948C497.47 249.005 499.298 250.645 501.362 251.956C499.979 252.403 498.558 252.708 497.137 252.803C495.945 252.894 494.834 252.868 493.776 252.752C493.398 252.549 493.003 252.351 492.625 252.148C492.507 252.275 492.353 252.411 492.217 252.542C490.684 252.287 489.242 251.875 487.8 251.462C487.366 251.332 486.909 251.188 486.474 251.057C485.713 250.842 484.942 250.592 484.158 250.365C482.242 249.813 480.318 249.663 478.922 249.562C478.493 249.524 477.989 249.488 477.734 249.461C477.617 249.379 477.522 249.309 477.41 249.244C475.906 249.381 474.402 249.517 472.898 249.654C472.653 249.663 472.425 249.667 472.185 249.693C470.905 247.753 469.079 246.264 466.447 244.25C465.923 243.857 465.413 243.442 464.889 243.05C464.564 243.613 464.235 244.158 463.91 244.72C462.991 246.26 462.676 248.208 462.913 250.085C463.494 250.196 464.075 250.306 464.669 250.394C464.347 248.693 464.535 246.911 465.394 245.502C468.347 247.792 470.141 249.233 471.288 251.455C471.807 251.335 472.381 251.276 472.982 251.248C474.304 251.141 475.621 251.017 476.938 250.892C477.475 251.262 480.654 251.057 483.658 251.907C485.042 252.316 486.351 252.726 487.649 253.101C492.294 253.397 496.971 253.532 501.691 253.542C507.393 251.748 512.486 247.473 514.019 242.402C515.028 239.069 515.417 235.199 516.874 232.259C514.881 231.139 514.112 229.404 513.069 227.287C514.67 227.372 516.521 227.675 518.186 228.351C517.44 227.771 516.703 227.15 515.993 226.485C515.947 226.668 515.886 226.799 515.421 226.695C514.232 224.883 512.838 223.374 511.48 221.854C511.834 222.749 512.183 223.625 512.514 224.507C511.466 223.646 511.056 222.615 511.06 221.491C507.86 219.914 504.545 218.12 502.71 216.311C504.139 215.966 506.091 216.508 507.825 217.299C507.33 216.518 506.88 215.688 506.481 214.767C506.216 214.135 505.951 213.502 505.727 212.877C503.252 211.448 500.043 210.9 497.492 210.538C500.239 209.079 502.476 210.115 504.958 210.858C503.878 207.894 502.877 205.081 501.011 202.233C505.745 203.856 506.547 208.625 507.721 212.723C508.104 214.009 508.479 215.126 508.924 216.148C508.006 210.307 514.761 207.052 516.288 201.678C518.57 203.805 512.945 209.574 511.837 212.039C511.029 213.853 510.706 215.557 510.916 217.193C512.452 213.909 515.51 212.614 517.794 209.568C516.508 212.081 512.797 215.909 511.514 219.354C511.694 219.743 511.888 220.109 512.121 220.484C512.922 221.202 513.741 221.914 514.537 222.614C514.697 220.231 517.791 218.147 519.139 216.15C518.583 218.049 516.633 221.919 517.027 224.667C518.394 225.366 519.869 225.903 521.288 226.512C520.831 222.963 524.258 218.431 526.843 216.292C527.093 216.092 527.344 215.892 527.59 215.674C527.311 215.767 527.049 215.857 526.77 215.95C526.557 216.007 526.354 216.1 526.141 216.157C529.247 214.05 529.908 210.697 529.661 207.358C529.823 207.467 530.609 207.846 530.793 207.892C530.688 208.281 530.619 208.661 530.554 209.059C530.692 209.859 530.548 210.811 530.27 211.76C530.222 212.363 530.192 212.96 530.121 213.55C533.833 210.292 537.002 206.646 537.417 201.38C540.446 204.449 534.591 211.42 531.638 213.105C534.421 213.482 537.506 211.932 539.68 210.037C539.564 215.071 531.588 214.907 528.506 216.608C520.813 220.837 529.47 223.33 532.584 218.977C532.977 224.064 526.927 221.291 524.69 223.45C523.182 224.92 523.162 226.409 523.854 227.783C523.854 227.783 523.899 227.809 523.904 227.827C524.184 227.809 524.487 227.804 524.79 227.799C528.303 227.846 541.706 233.785 541.17 236.61C540.525 239.884 529.865 239.354 527.354 240.35C522.511 242.295 524.391 247.536 526.726 252.274C527.318 252.21 527.927 252.142 528.519 252.079C526.974 249.012 525.425 245.432 526.247 243.386C526.413 242.942 526.795 242.307 527.999 241.833C528.583 241.6 530.399 241.418 531.996 241.275C536.766 240.834 542.15 240.266 542.824 236.89C543.086 235.526 542.087 234.139 540.447 232.848C541.043 232.802 541.648 232.716 542.279 232.585C548.92 231.319 555.285 225.752 556.327 219.634C556.875 216.424 556.786 212.758 557.803 209.88C555.828 209.039 554.92 207.495 553.734 205.625C555.212 205.533 556.97 205.633 558.573 206.078C557.82 205.614 557.077 205.11 556.341 204.565C556.331 204.739 556.288 204.864 555.837 204.814C554.54 203.24 553.08 201.977 551.654 200.704C552.073 201.486 552.497 202.285 552.915 203.067C551.852 202.363 551.342 201.454 551.235 200.417C548.096 199.28 544.829 197.949 542.946 196.456C544.226 195.98 546.094 196.278 547.783 196.834C547.242 196.161 546.721 195.426 546.257 194.618C545.931 194.039 545.632 193.492 545.333 192.944C542.913 191.862 539.862 191.69 537.467 191.628C539.837 189.966 542.033 190.709 544.412 191.137C543.075 188.49 541.847 185.966 539.8 183.509C544.349 184.515 545.617 188.893 547.164 192.606C547.647 193.77 548.123 194.765 548.65 195.669C547.156 190.306 553.039 186.562 553.843 181.401C556.19 183.13 551.633 189.126 550.89 191.531C550.358 193.31 550.243 194.938 550.589 196.443C551.649 193.23 554.337 191.692 556.095 188.596C555.178 191.067 552.169 195.031 551.379 198.4C551.586 198.744 551.805 199.066 552.078 199.373C552.899 199.952 553.719 200.531 554.545 201.128C554.436 198.875 557.045 196.616 558.072 194.628C557.782 196.456 556.407 200.268 557.082 202.788C558.432 203.282 559.842 203.646 561.226 204.055C560.409 200.793 563.059 196.202 565.209 193.933C565.415 193.707 565.626 193.499 565.831 193.272C565.597 193.392 565.358 193.494 565.124 193.614C564.938 193.702 564.752 193.79 564.567 193.877C565.678 192.914 566.345 191.784 566.726 190.579C567.057 190.89 567.383 191.183 567.713 191.494C568.198 191.953 568.665 192.418 569.101 192.91C568.189 193.268 567.388 193.616 566.798 194.04C563.227 196.614 563.975 198.202 565.824 198.429C564.744 199.365 563.686 200.314 562.605 201.251C562.997 201.222 563.401 201.17 563.793 201.142C562.836 202.539 563.027 203.82 563.763 204.935C563.781 204.93 563.804 204.943 563.826 204.956C564.079 204.907 564.355 204.871 564.648 204.831C567.892 204.513 580.926 208.648 580.736 211.343C580.507 214.467 570.61 215.084 568.433 216.257C561.747 219.912 571.346 229.4 572.984 233.526C573.543 234.974 573.667 236.501 573.465 238.019C575.17 238.418 576.818 239.175 578.506 239.864C578.142 240 577.779 240.135 577.411 240.253C573.656 241.43 570.395 241.257 566.603 241.018C565.809 240.965 564.997 240.916 564.167 240.872C562.16 240.763 560.262 241.063 558.875 241.282C558.453 241.338 557.964 241.431 557.701 241.444C557.576 241.402 557.445 241.342 557.32 241.299C555.888 241.778 554.457 242.257 553.021 242.717C552.79 242.779 552.559 242.841 552.356 242.934C550.613 241.327 548.484 240.338 545.417 238.972C544.811 238.697 544.227 238.435 543.603 238.165C543.421 238.765 543.227 239.388 543.05 240.006C542.088 243.231 543.554 247.213 546.337 249.435C547.026 249.307 547.732 249.175 548.439 249.043C548.46 248.98 548.468 248.94 548.489 248.877C545.594 247.37 543.772 243.484 544.701 240.42C548.154 241.948 550.248 242.947 551.933 244.835C552.424 244.608 552.942 244.412 553.546 244.251C554.804 243.837 556.046 243.429 557.3 242.998C557.914 243.232 560.973 242.298 564.078 242.456C568.931 242.677 573.055 243.303 577.945 241.746C584.851 239.552 590.898 232.873 591.184 226.272C591.344 222.824 590.749 218.97 591.458 215.794C589.25 215.149 588.083 213.635 586.556 211.838C588.115 211.554 590.003 211.428 591.768 211.697C590.906 211.319 590.042 210.866 589.192 210.39C589.204 210.577 589.166 210.72 588.689 210.715C587.091 209.222 585.396 208.078 583.696 206.917C584.249 207.701 584.796 208.467 585.349 209.251C584.122 208.648 583.46 207.741 583.206 206.649C579.721 205.852 576.072 204.87 573.865 203.521C575.169 202.849 577.189 202.935 579.058 203.309C578.393 202.67 577.743 201.95 577.15 201.158C576.735 200.603 576.338 200.044 575.964 199.497C573.231 198.67 569.972 198.858 567.413 199.106C569.737 197.057 572.156 197.569 574.744 197.713C572.992 195.082 571.35 192.573 568.86 190.235C573.842 190.726 575.74 195.182 577.857 198.895C578.531 200.065 579.176 201.052 579.833 201.941C577.548 196.467 583.308 191.766 583.531 186.209C586.244 187.746 582.157 194.642 581.684 197.28C581.329 199.22 581.434 200.961 582.013 202.48C582.72 198.942 585.374 196.995 586.858 193.516C586.2 196.241 583.527 200.819 583.111 204.449C583.371 204.779 583.666 205.099 583.974 205.397C584.927 205.902 585.88 206.408 586.834 206.913C586.411 204.554 588.896 201.834 589.741 199.591C589.663 201.571 588.695 205.768 589.746 208.339C591.249 208.697 592.803 208.89 594.323 209.167C593.028 205.824 595.236 200.648 597.224 197.985C597.402 197.728 597.603 197.484 597.799 197.223C597.552 197.365 597.327 197.52 597.08 197.662C596.886 197.791 596.705 197.896 596.524 198.002C599.018 195.241 598.85 191.843 597.825 188.656C597.995 188.725 598.863 188.911 599.054 188.916C599.048 189.317 599.059 189.714 599.088 190.106C599.421 190.853 599.504 191.801 599.445 192.787C599.544 193.369 599.648 193.969 599.729 194.556C602.531 190.533 604.737 186.271 603.914 181.071C607.554 183.367 603.559 191.457 601.115 193.766C603.914 193.492 606.502 191.296 608.156 188.95C609.264 193.865 601.487 195.511 598.924 197.872C592.503 203.72 601.473 204.189 603.44 199.249C605.041 204.089 598.525 202.772 596.867 205.385C595.76 207.146 596.115 208.611 597.11 209.771C597.11 209.771 597.15 209.779 597.173 209.792C597.457 209.716 597.741 209.64 598.025 209.564C601.439 208.82 615.858 211.519 616.013 214.369C616.18 217.691 605.757 219.609 603.563 221.148C599.63 223.932 602.099 228.178 605.244 232.034C605.775 231.816 606.324 231.592 606.873 231.369C604.853 228.943 602.994 226.265 603.261 224.348C603.329 223.892 603.522 223.194 604.574 222.436C605.085 222.071 606.796 221.499 608.294 220.983C612.792 219.455 617.874 217.694 617.678 214.265C617.667 214.154 617.66 213.985 617.63 213.802C618.095 213.621 618.555 213.421 619.011 213.204C619.007 213.262 618.986 213.325 618.965 213.388C618.17 216.739 619.931 220.756 622.947 222.783C622.852 223.283 622.821 223.805 622.79 224.327C623.382 224.054 623.975 223.781 624.545 223.495C624.612 222.964 624.701 222.445 624.836 221.953C621.889 220.612 619.869 216.835 620.597 213.73C624.096 215.075 626.214 215.953 627.987 217.742C628.451 217.484 628.964 217.271 629.54 217.078C630.762 216.599 631.962 216.106 633.184 215.627C633.807 215.821 636.77 214.742 639.862 214.712C644.684 214.675 648.782 215.061 653.529 213.256C660.243 210.697 665.843 203.699 665.75 197.104C665.701 193.656 664.906 189.836 665.418 186.637C663.208 186.126 661.944 184.676 660.36 182.951C661.895 182.578 663.737 182.351 665.513 182.521C664.643 182.184 663.759 181.793 662.9 181.358C662.912 181.545 662.892 181.683 662.425 181.713C660.757 180.315 659.01 179.261 657.258 178.19C657.841 178.947 658.437 179.681 659.02 180.438C657.772 179.897 657.067 179.04 656.742 177.967C654.27 177.545 651.752 177.021 649.663 176.326C648.723 178.423 644.575 177.708 643.221 179.612C642.066 181.196 642.303 182.578 643.148 183.74C643.165 183.735 643.193 183.766 643.21 183.761C643.459 183.695 643.73 183.641 644.023 183.6C647.237 183.101 660.416 186.569 660.377 189.262C660.322 192.396 650.523 193.519 648.401 194.829C642.314 198.591 650.925 206.802 653.471 211.123C652.34 211.159 651.181 211.166 649.977 211.146C649.197 211.145 648.395 211.132 647.557 211.129C645.565 211.149 643.713 211.55 642.346 211.84C641.933 211.932 641.444 212.025 641.191 212.073C641.065 212.031 640.94 211.989 640.814 211.946C639.836 212.341 634.658 213.177 631.139 213.816C626.628 213.807 620.607 213.766 620.562 213.74C624.755 211.075 636.059 203.215 636.569 198.799C636.938 195.561 636.662 191.907 637.513 188.978C635.509 188.241 634.521 186.755 633.238 184.95C634.697 184.787 636.444 184.775 638.086 185.153C637.308 184.734 636.533 184.257 635.794 183.77C635.784 183.944 635.741 184.07 635.313 184.032C633.924 182.54 632.424 181.344 630.929 180.166C631.397 180.916 631.851 181.688 632.305 182.461C631.202 181.824 630.657 180.924 630.497 179.902C627.307 178.93 624.012 177.778 622.041 176.385C623.284 175.842 625.146 176.047 626.865 176.5C626.275 175.859 625.724 175.151 625.225 174.353C624.868 173.801 624.551 173.259 624.222 172.738C621.741 171.786 618.71 171.761 616.331 171.828C618.614 170.056 620.818 170.683 623.198 170.977C621.742 168.381 620.386 165.948 618.216 163.6C622.797 164.37 624.274 168.673 626.024 172.293C626.573 173.421 627.102 174.401 627.66 175.279C625.887 170.009 631.532 165.948 632.065 160.765C634.494 162.377 630.28 168.585 629.661 171.033C629.21 172.828 629.193 174.469 629.646 175.945C630.523 172.686 633.097 171.007 634.702 167.838C633.933 170.364 631.154 174.476 630.538 177.855C630.758 178.177 630.995 178.494 631.267 178.801C632.114 179.335 632.961 179.869 633.813 180.421C633.574 178.183 636.052 175.788 636.967 173.736C636.775 175.575 635.61 179.463 636.41 181.95C637.781 182.382 639.207 182.665 640.595 183.016C639.601 179.802 641.99 175.091 644.014 172.704C644.202 172.482 644.407 172.256 644.59 172.017C644.356 172.137 644.127 172.274 643.893 172.394C643.707 172.482 643.544 172.583 643.363 172.688C643.727 172.343 644.041 171.955 644.285 171.585C645.494 171.413 646.703 171.241 647.926 171.047C645.478 170.714 642.822 171.026 640.679 171.334C642.853 169.154 645.275 169.532 647.842 169.529C645.945 166.993 644.198 164.589 641.589 162.378C646.54 162.611 648.672 166.948 650.988 170.55C651.711 171.688 652.405 172.643 653.128 173.495C650.555 168.155 655.989 163.161 655.886 157.596C658.655 158.985 655.022 166.083 654.688 168.741C654.454 170.705 654.647 172.423 655.314 173.918C655.807 170.362 658.325 168.26 659.593 164.687C659.096 167.445 656.724 172.151 656.522 175.8C656.795 176.108 657.103 176.406 657.429 176.699C658.408 177.159 659.365 177.606 660.344 178.067C659.797 175.741 662.093 172.881 662.795 170.601C662.828 172.57 662.124 176.829 663.307 179.327C664.809 179.61 666.357 179.708 667.876 179.91C666.395 176.655 668.285 171.355 670.11 168.584C670.289 168.327 670.462 168.052 670.641 167.795C670.416 167.95 670.173 168.11 669.954 168.283C669.777 168.407 669.601 168.53 669.425 168.653C671.734 165.771 671.379 162.385 670.176 159.246C670.359 159.292 671.218 159.442 671.392 159.452C671.403 159.849 671.436 160.258 671.501 160.641C671.865 161.361 672.023 162.307 672.005 163.302C672.161 163.887 672.278 164.465 672.382 165.065C674.919 160.904 676.851 156.544 675.735 151.384C679.474 153.483 675.985 161.76 673.696 164.218C676.434 163.789 678.895 161.474 680.374 159.043C681.753 163.904 674.162 165.957 671.748 168.449C665.724 174.647 674.637 174.618 676.29 169.572C678.153 174.322 671.617 173.354 670.151 176.048C669.157 177.874 669.582 179.32 670.639 180.425C670.657 180.42 670.679 180.433 670.702 180.446C670.981 180.353 671.243 180.263 671.544 180.183C674.884 179.231 689.285 181.154 689.614 184.015C689.968 187.324 679.768 189.791 677.701 191.448C671.409 196.501 683.294 204.653 685.813 208.658C686.614 209.946 687.035 211.374 687.167 212.86C694.725 210.683 700.683 208.287 704.752 206.151C702.229 199.789 704.569 197.944 704.569 197.944C704.565 197.717 704.562 197.49 704.558 197.263C704.487 197.282 704.416 197.301 704.345 197.32C704.154 196.819 703.958 196.301 703.749 195.806C704.064 195.702 704.396 195.594 704.711 195.491C704.732 195.428 704.718 195.375 704.744 195.33C704.197 195.134 703.679 194.835 703.187 194.491C702.437 192.828 701.626 191.22 700.806 189.651C700.48 189.073 700.149 188.477 699.823 187.899C699.838 187.742 699.818 187.596 699.856 187.452C703.47 188.519 705.693 189.217 707.596 190.856C708.051 190.563 708.55 190.297 709.116 190.069C710.292 189.487 711.49 188.919 712.666 188.338C713.315 188.487 716.212 187.159 719.318 186.898C724.169 186.473 728.333 186.536 732.975 184.341C739.528 181.254 744.631 173.819 744.03 167.247C743.714 163.793 742.634 160.05 742.91 156.819C740.631 156.478 739.267 155.151 737.524 153.544C739.027 153.047 740.888 152.681 742.685 152.713C741.776 152.443 740.87 152.115 739.955 151.752C740.002 151.929 739.982 152.068 739.506 152.138C737.725 150.885 735.882 149.971 734.035 149.039C734.679 149.742 735.342 150.439 735.987 151.141C734.691 150.709 733.925 149.906 733.51 148.857C729.944 148.538 726.214 148.034 723.826 147.001C725.028 146.165 727.053 145.984 728.949 146.103C728.191 145.545 727.459 144.943 726.774 144.232C726.28 143.737 725.826 143.25 725.367 142.745C722.548 142.302 719.345 142.913 716.836 143.49C718.874 141.156 721.319 141.338 723.923 141.116C721.824 138.749 719.883 136.473 717.091 134.501C722.084 134.324 724.569 138.489 727.171 141.881C727.987 142.937 728.764 143.851 729.549 144.649C727.791 141.639 728.822 138.529 729.869 135.338C729.829 135.33 729.801 135.299 729.761 135.291C729.814 135.276 729.853 135.209 729.92 135.172C730.627 132.985 731.335 130.799 731.119 128.574C732.483 129.121 732.507 131.055 732.138 133.227C732.549 132.775 732.933 132.291 733.259 131.805C733.681 133.594 732.844 134.94 731.526 136.054C731.163 137.54 730.789 138.915 730.76 139.798C730.677 141.76 731.004 143.479 731.768 144.91C731.989 141.332 734.374 139.019 735.378 135.383C735.1 138.178 733.043 143.066 733.127 146.715C733.417 147.017 733.756 147.288 734.108 147.536C735.121 147.911 736.135 148.286 737.148 148.662C736.424 146.383 738.521 143.348 739.056 141.017C739.241 142.984 738.837 147.296 740.236 149.679C741.758 149.823 743.318 149.824 744.874 149.882C743.142 146.751 744.637 141.329 746.273 138.418C746.424 138.13 746.58 137.86 746.731 137.572C746.511 137.745 746.291 137.919 746.076 138.109C745.904 138.25 745.733 138.391 745.575 138.51C747.685 135.453 747.071 132.098 745.634 129.078C745.818 129.124 746.692 129.194 746.879 129.182C746.926 129.569 746.995 129.969 747.077 130.347C747.513 131.048 747.724 131.98 747.781 132.973C747.974 133.549 748.143 134.112 748.296 134.68C750.536 130.333 752.157 125.809 750.633 120.758C754.554 122.542 751.671 131.094 749.541 133.719C752.275 133.062 754.568 130.546 755.867 128.01C757.609 132.737 750.144 135.402 747.894 138.079C742.319 144.746 751.264 143.985 752.546 138.829C754.785 143.422 748.141 142.977 746.856 145.775C745.996 147.679 746.541 149.074 747.69 150.098C747.708 150.093 747.731 150.106 747.753 150.119C748.028 150.007 748.28 149.883 748.576 149.784C751.868 148.579 766.507 149.335 767.054 152.156C767.662 155.417 757.569 158.711 755.621 160.527C752.106 163.808 755.108 167.702 758.735 171.086C759.247 170.797 759.755 170.489 760.254 170.223C757.932 168.087 755.743 165.668 755.742 163.747C755.729 163.275 755.842 162.56 756.785 161.679C757.242 161.253 758.855 160.459 760.283 159.753C764.53 157.645 769.338 155.215 768.702 151.848C768.669 151.724 768.631 151.582 768.579 151.386C769.012 151.156 769.435 150.891 769.854 150.607C769.85 150.665 769.829 150.728 769.825 150.786C769.486 154.206 771.764 157.951 775.027 159.55C775.013 160.067 775.035 160.575 775.067 161.118C775.618 160.761 776.151 160.409 776.702 160.052C776.693 159.522 776.725 159 776.778 158.491C773.674 157.554 771.164 154.079 771.49 150.892C772.626 151.158 773.606 151.409 774.493 151.666C778.294 148.46 786.104 138.207 786.016 133.761C785.961 130.504 785.192 126.924 785.636 123.895C783.556 123.444 782.374 122.087 780.859 120.477C782.278 120.097 784.026 119.876 785.682 120.021C784.857 119.71 784.035 119.341 783.226 118.949C783.234 119.118 783.214 119.256 782.782 119.277C781.218 117.984 779.566 117 777.913 116.016C778.46 116.707 779.029 117.41 779.593 118.096C778.417 117.612 777.762 116.799 777.455 115.797C774.175 115.268 770.731 114.555 768.604 113.432C769.764 112.722 771.636 112.677 773.409 112.905C772.744 112.342 772.101 111.715 771.509 110.999C771.091 110.502 770.69 110.001 770.294 109.517C767.717 108.914 764.702 109.304 762.346 109.669C764.361 107.607 766.635 107.93 769.046 107.911C767.25 105.539 765.586 103.303 763.118 101.264C767.765 101.426 769.803 105.483 772.012 108.829C772.712 109.878 773.351 110.772 774.042 111.576C771.582 106.585 776.623 101.83 776.459 96.6047C779.084 97.8798 775.729 104.599 775.45 107.108C775.259 108.948 775.446 110.571 776.089 111.978C776.523 108.628 778.861 106.632 780.012 103.261C779.588 105.867 777.394 110.316 777.229 113.746C777.479 114.04 777.765 114.325 778.081 114.583C778.993 115.004 779.9 115.408 780.812 115.829C780.285 113.65 782.414 110.949 783.051 108.781C783.091 110.635 782.472 114.643 783.594 116.986C785.007 117.216 786.443 117.326 787.89 117.471C786.479 114.406 788.205 109.416 789.899 106.794C790.059 106.542 790.22 106.29 790.381 106.037C790.156 106.193 789.949 106.343 789.742 106.494C789.584 106.612 789.407 106.736 789.249 106.854C789.563 106.465 789.815 106.056 790.026 105.638C790.576 105.49 791.126 105.343 791.685 105.155C791.661 105.066 791.637 104.978 791.614 104.889C789.549 105.062 787.467 105.6 785.751 106.08C787.273 104.093 789.161 103.758 791.189 103.519C791.147 103.359 791.091 103.222 791.03 103.067C791.196 103.118 792.014 103.26 792.178 103.235C792.193 103.288 792.207 103.341 792.199 103.382C792.341 103.344 792.474 103.346 792.621 103.325C790.417 101.063 788.358 98.9138 785.488 97.0768C790.245 96.6581 792.91 100.357 795.589 103.539C795.771 103.014 795.959 102.507 796.102 101.974C796.423 102.25 796.739 102.508 797.042 102.788C796.833 103.357 796.62 103.909 796.384 104.448C797.07 105.234 797.755 105.944 798.411 106.548C795.146 101.603 799.882 95.921 799.018 90.427C801.95 91.4295 799.286 98.9528 799.323 101.644C799.356 103.613 799.79 105.304 800.638 106.694C800.644 103.097 802.872 100.693 803.648 96.9852C803.526 99.7951 801.795 104.767 802.088 108.416C802.409 108.692 802.748 108.962 803.113 109.188C804.13 109.505 805.152 109.84 806.187 110.152C805.343 107.925 807.242 104.791 807.621 102.445C807.912 104.383 807.776 108.7 809.294 111.032C810.815 111.1 812.369 111.007 813.907 110.994C812.006 107.946 813.179 102.458 814.604 99.4705C814.737 99.1875 814.871 98.9045 815.022 98.6167C814.807 98.8075 814.609 98.9936 814.394 99.1844C814.241 99.3207 814.074 99.4795 813.92 99.6157C815.833 96.4594 815.019 93.1394 813.414 90.2026C813.593 90.2308 814.476 90.2605 814.663 90.2485C814.732 90.6484 814.814 91.0259 814.919 91.4163C815.385 92.0904 815.65 93.0084 815.778 93.9823C815.988 94.5537 816.193 95.1074 816.385 95.6835C818.347 91.2205 819.687 86.6386 817.879 81.6641C821.863 83.2594 819.504 91.9185 817.576 94.6607C820.237 93.8717 822.368 91.2464 823.514 88.6377C825.53 93.2523 818.286 96.3156 816.216 99.0958C811.073 106.028 819.9 104.823 820.877 99.5968C823.363 104.047 816.761 103.971 815.646 106.838C814.89 108.771 815.506 110.147 816.712 111.098C816.712 111.098 816.747 111.089 816.77 111.102C817.022 110.977 817.291 110.848 817.561 110.719C820.747 109.333 835.28 109.338 835.982 112.098C836.789 115.324 826.991 119.148 825.16 121.046C819.611 126.889 832.458 133.376 835.487 137.015C836.534 138.295 837.183 139.794 837.482 141.407C841.096 141.124 844.98 142.271 848.798 141.4C848.991 144.962 851.363 147.921 851.682 151.241C849.192 152.383 847.848 155.178 846.961 158.326C847.012 158.446 847.058 158.547 847.109 158.667C847.003 158.695 846.924 158.755 846.817 158.783C845.871 162.422 845.484 166.445 844.695 168.824C841.101 166.554 841.743 163.7 842.894 161.109C838.264 164.556 835.529 169.683 835.288 175.244C829.669 171.31 829.709 171.318 834.336 165.304C837.032 161.805 838.745 160.604 842.372 158.167C841.806 156.55 841.828 156.563 841.142 154.997C837.167 156.842 832.859 157.235 829.194 159.53C826.804 161.045 823.202 163.076 821.491 162.088C819.508 162.848 817.501 163.595 815.507 164.529C809.918 167.168 805.22 170.861 799.262 170.346C796.269 173.659 793.475 176.861 794.283 178.528C794.87 179.797 802.57 183.688 804.28 184.39C807.058 185.529 812.948 188.839 813.657 197.38C813.873 200.384 808.725 198.283 807.032 198.28C807.215 192.715 806.52 188.773 801.285 185.991C796.892 183.649 791.711 183.269 787.049 185.393C787.221 184.472 787.517 182.738 787.863 180.762C784.193 183.324 781.356 184.731 779.167 186.573C779.786 188.385 780.484 190.138 780.56 191.982C777.996 192.992 776.482 195.719 775.411 198.821C775.444 198.945 775.491 199.047 775.542 199.166C775.435 199.195 775.334 199.241 775.25 199.282C774.08 202.868 773.456 206.858 772.501 209.187C771.112 208.19 770.399 207.163 770.132 206.094C768.337 208.838 765.965 211.129 762.823 213.816C762.746 214.236 762.691 214.669 762.649 215.08C762.409 214.897 762.17 214.714 761.953 214.543C761.628 214.821 761.298 215.08 760.973 215.358C760.858 214.856 760.74 214.203 760.643 213.487C757.899 211.198 757.871 210.311 760.405 207.274C760.542 206.153 760.798 205.19 761.273 204.549C761.848 203.786 762.939 203.456 764.185 203.065C765.842 201.442 767.345 200.449 769.542 199.138C769.926 198.369 770.176 197.598 770.333 196.834C770.201 196.413 770.056 196.014 769.734 195.168C765.626 196.801 761.256 196.964 757.446 199.069C754.942 200.444 751.198 202.303 749.522 201.231C747.492 201.889 745.417 202.521 743.359 203.358C737.56 205.71 732.621 209.145 726.653 208.309C723.444 211.452 720.438 214.502 721.144 216.215C721.665 217.521 729.189 221.82 730.882 222.602C733.605 223.889 739.348 227.505 739.555 236.085C739.601 239.097 734.534 236.727 732.816 236.635C733.329 231.096 732.875 227.128 727.751 224.05C725.617 222.758 723.233 221.951 720.808 221.707C719.594 221.576 718.342 221.588 717.115 221.764C715.888 221.941 714.658 222.251 713.441 222.749C713.666 221.814 714.06 220.091 714.527 218.14C713.173 218.978 711.914 219.677 710.775 220.325C699.647 224.296 703.958 234.991 702.947 243.498C702.593 245.514 700.658 246.527 698.917 246.347C696.673 246.491 696.165 244.383 696.377 243.185C697.362 237.633 700.323 232.712 697.676 226.383C697.641 226.393 697.623 226.398 697.605 226.402C697.648 226.277 697.685 226.134 697.723 225.99C696.282 227.213 695.181 229.068 694.293 231.151C694.327 231.275 694.355 231.382 694.389 231.506C694.282 231.534 694.193 231.558 694.087 231.587C692.661 235.069 691.751 238.984 690.644 241.24C687.384 238.518 688.399 235.774 689.9 233.355C684.854 236.172 681.47 240.864 680.466 246.345C675.436 241.701 675.458 241.714 680.837 236.373C683.976 233.25 685.831 232.296 689.748 230.372C689.389 228.68 689.417 228.711 688.957 227.065C684.758 228.361 680.45 228.184 676.518 229.979C673.944 231.164 670.097 232.708 668.534 231.491C666.474 231.967 664.379 232.452 662.273 233.111C656.368 234.998 651.24 238.008 645.398 236.72C642.006 239.607 638.8 242.406 639.364 244.157C639.779 245.492 646.889 250.377 648.505 251.295C651.092 252.789 656.5 256.856 656.056 265.421C655.87 268.419 651.041 265.661 649.38 265.422C650.308 259.942 650.147 255.934 645.32 252.472C641.287 249.558 636.206 248.485 631.284 249.994C631.576 249.097 632.096 247.417 632.711 245.522C628.734 247.576 625.734 248.589 623.313 250.132C623.683 252.011 624.138 253.849 623.981 255.678C621.3 256.321 619.444 258.834 617.964 261.761C617.998 261.885 618.031 262.009 618.064 262.133C617.958 262.162 617.851 262.19 617.763 262.214C616.122 265.602 614.975 269.486 613.732 271.664C612.469 270.499 611.92 269.372 611.799 268.282C609.648 270.761 606.998 272.726 603.528 274.968C603.41 275.38 603.275 275.797 603.175 276.204C602.961 275.976 602.758 275.784 602.572 275.586C602.214 275.815 601.852 276.026 601.478 276.26C601.433 275.739 601.413 275.097 601.405 274.358C598.99 271.733 599.096 270.849 601.992 268.171C602.273 267.088 602.672 266.163 603.206 265.601C603.894 264.903 605.005 264.72 606.298 264.506C608.156 263.133 609.787 262.335 612.123 261.329C612.597 260.612 612.955 259.888 613.214 259.153C613.136 258.718 613.044 258.305 612.864 257.421C608.568 258.496 604.216 258.083 600.146 259.649C597.494 260.683 593.514 262.016 592.009 260.727C589.902 261.101 587.774 261.462 585.617 262.002C579.564 263.548 574.213 266.294 568.401 264.694C564.805 267.388 561.413 269.99 561.898 271.8C562.259 273.149 569.113 278.426 570.712 279.425C573.244 281.067 578.443 285.418 577.512 293.942C577.153 296.929 572.444 293.911 570.759 293.583C572.004 288.151 572.093 284.152 567.422 280.42C565.461 278.853 563.223 277.741 560.842 277.162C559.643 276.874 558.424 276.725 557.185 276.715C555.928 276.709 554.674 276.855 553.414 277.193C553.764 276.3 554.382 274.632 555.117 272.761C553.653 273.401 552.334 273.944 551.107 274.406C539.534 276.86 542.396 288.039 540.263 296.333C539.645 298.287 537.58 299.03 535.889 298.608C533.645 298.468 533.425 296.301 533.798 295.136C535.517 289.768 539.092 285.291 537.331 278.649C535.044 279.129 532.993 280.915 531.112 283.054C531.11 283.188 531.103 283.304 531.119 283.433C531.02 283.421 530.909 283.432 530.798 283.443C528.329 286.368 526.204 289.867 524.417 291.715C522.133 288.161 523.966 285.844 526.176 283.94C520.425 285.195 515.685 288.729 512.988 293.712C510.744 289.787 511.916 286.638 516.506 284.267C520.526 282.163 522.61 281.776 526.996 281.038C527.186 279.332 527.19 279.35 527.264 277.637C522.808 277.69 518.684 276.284 514.336 276.879C511.494 277.279 507.298 277.661 506.161 276.045C504.015 275.916 501.869 275.787 499.633 275.816C493.368 275.935 487.479 277.38 482.264 274.459C478.082 276.245 474.146 278.023 474.146 279.868C474.12 281.263 479.416 287.966 480.691 289.318C482.702 291.499 486.631 296.932 483.469 305.008C482.322 307.826 478.582 303.806 477.041 303.097C479.68 298.11 480.792 294.236 477.25 289.536C474.273 285.597 469.73 283.124 464.548 283.163C465.101 282.387 466.137 280.93 467.312 279.283C457.818 281.047 454.091 279.63 447.591 288.029C441.794 295.498 436.926 297.278 427.689 299.791C428.314 297.227 430.306 291.386 432.713 290.076C434.842 288.935 438.561 291.457 442.23 288.819C445.735 286.282 445.959 282.646 448.198 279.574C451.334 275.233 450.276 277.533 455.681 276.123C460.903 274.743 462.542 269.928 463.696 264.864C463.137 264.766 462.574 264.651 462.015 264.553C455.688 263.301 449.618 261.731 443.836 259.819C443.688 259.763 443.523 259.713 443.357 259.662C444.58 262.168 446.546 265.389 447.213 266.313C448.362 267.907 450.169 271.171 449.716 275.515C448.797 275.989 448.032 276.898 446.738 278.671C446.085 279.569 445.588 280.482 445.167 281.394C444.034 280.575 442.91 279.221 442.208 278.801C445.219 274.418 446.697 270.921 444.014 266.162C441.763 262.162 437.874 259.362 433.115 258.849C433.557 258.369 434.257 257.573 435.092 256.645C434.307 256.342 433.553 256.012 432.781 255.686C426.246 255.858 423.012 255.431 417.024 261.62C416.31 262.363 415.612 263.025 414.918 263.63C415.42 264.58 415.784 265.585 415.958 266.661C417.333 274.985 415.343 281.757 404.685 283.225C404.214 283.808 403.72 284.377 403.163 284.926C400.612 287.474 397.454 289.461 393.789 290.976C394.289 292.344 394.638 293.716 394.793 295.006C395.645 296.337 396.676 297.487 397.774 298.392C404.149 296.912 409.429 294.47 413.141 290.717C418.211 285.573 420.006 278.359 418.747 268.691C419.694 268.532 420.635 268.356 421.577 268.18C422.975 278.647 420.885 286.892 415.184 292.661C408.869 299.052 398.681 301.991 386.443 302.816C386.485 302.9 386.549 302.997 386.595 303.099C386.367 303.027 386.116 302.942 385.882 302.852C370.033 303.828 350.879 301.275 332.218 298.362C323.885 297.076 316.024 295.778 308.496 294.732C308.681 293.789 308.848 292.85 309.033 291.907C315.671 292.829 322.548 293.935 329.756 295.066L329.802 295.377ZM650.441 172.979C649.995 172.452 649.585 171.915 649.179 171.396C648.978 171.355 648.777 171.314 648.576 171.272C647.403 171.796 646.315 172.277 645.616 172.864C640.203 177.225 645.489 178.566 648.469 176.056C648.065 175.898 647.692 175.713 647.342 175.54C647.915 175.196 648.648 175.019 649.444 174.939C649.553 174.777 649.644 174.619 649.73 174.444C649.773 174.604 649.793 174.75 649.818 174.915C650.677 174.856 651.587 174.916 652.499 175.052C651.802 174.44 651.127 173.765 650.485 173.005L650.441 172.979ZM845.599 151.824C845.58 152.819 845.65 153.789 845.818 154.771C846.324 153.818 846.834 152.882 846.921 152.003C847.11 149.936 845.621 148.357 845.798 146.179C843.109 146.576 840.291 146.779 837.401 146.926C837.159 148.151 836.76 149.361 836.267 150.502C839.576 150.927 843.71 151.589 845.577 151.811L845.599 151.824ZM792.594 105.14C792.7 105.111 792.807 105.083 792.913 105.054C792.797 105.047 792.686 105.058 792.57 105.051C792.58 105.087 792.584 105.104 792.594 105.14ZM795.683 106.519C795.457 106.313 795.226 106.089 795.017 105.879C794.894 105.988 794.762 106.062 794.644 106.188C794.717 106.036 794.785 105.865 794.859 105.712C794.655 105.52 794.428 105.314 794.225 105.121C794.126 105.11 794.01 105.103 793.912 105.091C793.502 105.334 793.132 105.585 792.779 105.832C792.848 106.232 792.882 106.641 792.885 107.078C792.966 107.38 793.029 107.686 793.097 108.011C792.648 108.606 792.181 109.207 791.727 109.785C792.061 108.688 792.104 107.573 791.956 106.452C791.82 106.584 791.662 106.702 791.544 106.829C786.928 111.68 791.794 112.449 794.497 109.899C793.946 109.761 793.413 109.619 792.947 109.439C793.607 108.92 794.533 108.615 795.568 108.432C795.668 108.235 795.749 108.042 795.826 107.831C795.901 108.039 795.943 108.199 795.991 108.376C796.631 108.281 797.308 108.252 797.977 108.263C797.193 107.75 796.447 107.17 795.714 106.491L795.683 106.519ZM779.413 154.056C779.84 153.733 780.317 153.453 780.869 153.172C782.013 152.542 783.152 151.894 784.273 151.252C784.93 151.361 787.709 149.875 790.772 149.453C795.539 148.785 799.658 148.613 804.128 146.198C810.439 142.776 815.056 135.09 814.086 128.56C813.587 125.136 812.278 121.455 812.361 118.218C810.098 118.006 808.673 116.733 806.847 115.244C808.308 114.663 810.105 114.2 811.896 114.139C810.979 113.909 810.051 113.644 809.15 113.334C809.198 113.511 809.196 113.645 808.725 113.733C806.891 112.569 805.001 111.763 803.142 110.93C803.836 111.6 804.506 112.258 805.195 112.91C803.878 112.54 803.085 111.782 802.623 110.765C800.335 110.674 797.952 110.514 795.923 110.182C794.983 112.07 791.15 112.032 790.095 113.988C789.171 115.72 789.585 117.054 790.588 118.098C790.606 118.094 790.628 118.107 790.651 118.12C790.894 118.035 791.156 117.946 791.435 117.852C794.557 116.94 808.089 118.602 808.406 121.275C808.761 124.375 799.198 126.805 797.281 128.383C791.764 132.924 801.379 139.915 804.485 143.839C803.374 144.022 802.218 144.18 801.021 144.329C800.247 144.422 799.438 144.525 798.633 144.646C796.673 144.924 794.865 145.56 793.567 146.041C793.168 146.186 792.699 146.35 792.45 146.417C792.33 146.392 792.191 146.372 792.053 146.352C790.746 147.083 789.443 147.831 788.15 148.539C787.928 148.636 787.73 148.747 787.531 148.857C785.527 147.625 778.93 151.542 775.681 150.777C775.278 151.189 774.968 151.52 774.67 151.828C776.604 152.374 778.081 152.987 779.427 154.034L779.413 154.056ZM775.36 163.208C775.595 164.723 775.956 166.282 776.33 167.893C776.402 168.159 776.473 168.426 776.531 168.714C777.025 168.354 777.518 167.993 778.028 167.628C777.587 165.768 777.151 163.926 776.93 162.178C776.414 162.526 775.894 162.855 775.373 163.185L775.36 163.208ZM775.765 192.544C775.837 192.106 775.822 191.692 775.775 191.305C775.284 192.311 774.853 193.473 774.457 194.835C774.455 194.968 774.471 195.097 774.491 195.244C775.064 194.33 775.637 193.415 775.765 192.544ZM776.58 182.454C780.037 179.169 779.526 174.493 778.51 169.782C778 170.147 777.506 170.507 777.009 170.85C773.798 173.137 770.569 175.353 767.338 177.493C766.871 177.808 766.399 178.106 765.914 178.426C766.435 179.447 766.765 180.537 766.918 181.676C770.054 181.596 773.302 182.571 776.598 182.449L776.58 182.454ZM770.564 191.522C770.577 190.719 770.631 189.925 770.768 189.089C770.957 188.088 771.092 187.386 771.257 186.866C769.694 186.924 768.098 186.933 766.485 186.946C766.162 188.155 765.701 189.344 765.127 190.468C766.866 190.782 768.816 191.172 770.564 191.522ZM764.78 176.751C765.248 176.436 765.737 176.134 766.204 175.818C767.707 174.826 769.223 173.811 770.735 172.778C768.822 173.519 766.957 174.228 765.065 174.621C764.327 173.925 763.459 173.168 762.518 172.355C762.224 172.11 761.931 171.866 761.65 171.599C761.138 171.888 760.625 172.177 760.118 172.484C761.942 174.107 763.758 175.561 764.785 176.769L764.78 176.751ZM705.246 216.442C706.305 214.218 706.363 211.597 706.072 208.878C706.037 208.888 706.001 208.897 705.966 208.907C705.856 208.708 705.786 208.518 705.698 208.332C701.845 210.353 696.891 212.309 691.403 214.045C693.684 214.537 696.02 215.091 698.414 214.868C698.226 217.22 699.007 219.426 699.534 221.606C699.832 221.297 700.112 220.994 700.388 220.673C701.076 220.26 701.801 219.914 702.51 219.648C703.8 218.713 704.669 217.624 705.241 216.424L705.246 216.442ZM693.852 224.536C693.695 225.51 693.636 226.496 693.675 227.493C694.297 226.623 694.938 225.747 695.129 224.897C695.594 222.871 694.325 221.118 694.797 218.976C692.083 218.999 689.264 218.841 686.385 218.605C685.977 219.779 685.431 220.934 684.785 222.001C688.004 222.869 692.03 224.054 693.857 224.553L693.852 224.536ZM610.995 236.39C610.362 235.589 609.599 234.728 608.781 233.806C608.536 233.53 608.263 233.222 608.013 232.928C607.464 233.151 606.915 233.374 606.384 233.593C607.984 235.446 609.577 237.131 610.428 238.463C610.932 238.213 611.459 237.977 611.98 237.723C613.594 236.93 615.225 236.131 616.869 235.31C614.867 235.79 612.931 236.232 611.013 236.385L610.995 236.39ZM624.399 225.646C623.842 225.909 623.284 226.173 622.71 226.441C622.74 227.974 622.9 229.567 623.057 231.217C623.093 231.493 623.111 231.774 623.147 232.049C623.677 231.755 624.229 231.474 624.782 231.193C624.594 229.284 624.415 227.411 624.416 225.641L624.399 225.646ZM624.965 233.369C624.418 233.668 623.865 233.949 623.331 234.226C619.845 236.054 616.345 237.828 612.857 239.505C612.353 239.754 611.827 239.99 611.323 240.239C611.706 241.316 611.877 242.449 611.883 243.608C615 243.952 618.094 245.349 621.375 245.668C625.245 242.862 625.358 238.171 624.983 233.364L624.965 233.369ZM619.21 255.549C619.328 255.137 619.37 254.727 619.377 254.325C618.751 255.254 618.167 256.342 617.606 257.653C617.586 257.792 617.583 257.925 617.581 258.059C618.271 257.227 618.962 256.396 619.21 255.549ZM614.19 253.851C614.302 253.06 614.449 252.26 614.729 251.462C615.043 250.503 615.281 249.83 615.509 249.332C613.947 249.18 612.357 248.997 610.776 248.774C610.305 249.928 609.673 251.048 608.959 252.076C610.644 252.614 612.514 253.273 614.208 253.846L614.19 253.851ZM547.975 260.447C547.897 257.101 547.572 253.688 548.023 250.828C547.428 250.95 546.846 251.049 546.263 251.147C546.205 251.639 546.151 252.148 546.12 252.67C540.932 253.47 536.154 255.017 531.473 253.38C531.028 253.423 530.588 253.484 530.125 253.531C529.896 253.669 529.68 253.784 529.468 253.917C529.449 253.846 529.394 253.784 529.353 253.7C529.343 253.665 529.339 253.647 529.329 253.612C528.72 253.68 528.128 253.743 527.518 253.812C528.597 255.919 529.618 257.814 529.957 259.15C530.371 260.694 530.312 262.25 529.928 263.799C530.826 263.672 531.737 263.523 532.649 263.374C537.156 262.661 541.701 261.805 546.283 260.805C546.861 260.688 547.433 260.554 548.006 260.419L547.975 260.447ZM539.296 274.128C540.386 273.437 541.741 272.959 543.011 272.657C544.407 271.903 545.424 270.945 546.154 269.837C547.506 267.782 547.912 265.181 547.982 262.461C547.41 262.596 546.832 262.712 546.242 262.851C545.794 262.952 545.34 263.036 544.892 263.137C541.739 263.792 538.589 264.388 535.46 264.922C534.567 265.067 533.696 265.224 532.798 265.35C535.15 266.603 537.488 268.088 540.242 268.644C539.501 270.421 539.395 272.295 539.301 274.146L539.296 274.128ZM532.804 276.59C532.36 277.489 531.997 278.404 531.723 279.372C532.595 278.72 533.484 278.063 533.948 277.311C535.046 275.514 534.36 273.453 535.482 271.536C532.867 270.791 530.172 269.82 527.476 268.774C526.717 269.776 525.833 270.736 524.863 271.585C527.709 273.334 531.215 275.628 532.827 276.603L532.804 276.59ZM462.477 262.87C463.04 262.985 463.599 263.083 464.163 263.198C464.862 259.986 465.527 256.86 466.96 254.612C466.213 253.956 465.602 253.093 465.198 252.155C464.559 252.041 463.92 251.927 463.28 251.813C463.615 252.921 464.164 253.973 464.896 254.861C464.719 255.193 464.582 255.534 464.432 255.898C459.306 255.579 454.43 255.839 450.45 252.911C446.406 254.147 442.585 255.361 442.364 257.094C442.353 257.192 442.368 257.321 442.393 257.485C448.351 259.56 455.05 261.417 462.5 262.883L462.477 262.87ZM341.433 279.155C340.762 278.992 339.857 278.74 338.817 278.41C338.315 281.93 333.425 286.607 329.807 288.794C333.515 289.36 337.219 289.908 340.886 290.39C344.213 288.11 346.983 285.314 348.13 282.001C346.737 281.557 345.12 280.849 341.438 279.172L341.433 279.155ZM376.911 286.977C376.012 287.027 375.108 287.06 374.252 287.061C366.27 287.089 359.396 284.575 351.433 282.828C350.188 285.349 348.309 288.42 346.375 291.069C358.423 292.444 369.908 293 379.587 291.852C378.634 290.281 377.585 288.356 376.911 286.977ZM388.75 286.791C388.437 286.475 388.106 286.164 387.798 285.866C384.77 286.278 381.75 286.65 378.915 286.858C379.655 288.486 380.725 290.063 381.882 291.541C384.678 291.116 387.297 290.528 389.718 289.765C389.358 288.777 389.034 287.78 388.75 286.791ZM427.46 251.234C430.726 250.074 432.494 247.089 433.854 243.719C433.769 243.685 433.666 243.656 433.576 243.604C418.536 237.876 409.353 231.644 404.287 227.504C402.285 225.853 400.582 224.255 399.184 222.727C397.948 224.504 397.165 226.197 398.741 227.677C398.685 228.035 398.593 228.402 398.466 228.778C399.342 229.989 400.388 231.269 401.583 232.603C404.639 235.988 412.682 243.857 427.478 251.229L427.46 251.234ZM402.497 261.499C406.006 257.344 394.567 254.551 402.247 242.678C404.363 242.339 404.508 242.243 406.113 240.919C401.74 250.936 408.898 255.713 413.243 261.283C415.763 259.257 416.499 256.397 418.599 254.084C421.492 250.893 421.01 251.935 424.043 251.826C411.624 245.301 404.17 238.567 399.983 233.945C399.061 232.918 398.22 231.907 397.441 230.917C396.041 233.289 393.862 235.661 392.596 237.541C390.74 240.34 388.738 243.939 384.998 242.62C384.998 242.62 384.998 242.62 384.994 242.603C384.805 242.539 384.612 242.457 384.415 242.358C384.547 242.57 384.698 242.777 384.844 242.966C383.112 247.862 389.744 248.12 390.51 251.548C390.674 252.303 390.641 252.959 390.477 253.554C394.314 253.249 400.427 249.728 397.604 257.579C396.297 261.22 394.075 261.872 391.572 261.402C395.02 262.628 400.134 260.135 402.51 261.477L402.497 261.499ZM392.752 288.667C395.665 287.468 398.224 285.945 400.34 284.047C397.735 284.402 394.956 284.823 392.12 285.241C392.028 285.893 391.999 286.567 392.046 287.239C392.286 287.707 392.526 288.176 392.752 288.667ZM392.184 299.68C392.476 299.278 392.692 298.878 392.886 298.465C392.287 296.514 391.49 294.464 390.689 292.396C386.482 293.733 381.759 294.561 376.64 294.981C378.957 296.814 382.025 298.465 384.214 300.389C386.975 300.258 389.637 300.039 392.171 299.702L392.184 299.68ZM380.298 300.468C377.334 298.847 374.408 296.873 372.727 295.212C363.997 295.573 354.306 294.898 344.285 293.703C343.301 294.86 342.372 295.794 341.562 296.391C341.215 296.656 340.883 296.839 340.583 296.996C354.402 299.019 368.2 300.609 380.303 300.486L380.298 300.468ZM332.405 294.87C333.874 294.248 335.418 293.549 336.933 292.743C334.069 292.35 331.174 291.909 328.296 291.462C329.621 292.572 331 293.743 332.405 294.87Z" fill="#F8C9D1"/>
</g>
</g>
<rect x="0.5" y="0.5" width="1151" height="423" stroke="url(#paint12_linear_6610_4916)"/>
<defs>
<linearGradient id="paint0_linear_6610_4916" x1="483.824" y1="603.218" x2="483.824" y2="388.301" gradientUnits="userSpaceOnUse">
<stop stop-color="#FFCCD5" stop-opacity="0"/>
<stop offset="1" stop-color="#FFCCD5"/>
</linearGradient>
<linearGradient id="paint1_linear_6610_4916" x1="73.3509" y1="549.502" x2="73.3509" y2="219.272" gradientUnits="userSpaceOnUse">
<stop stop-color="#FFCCD5" stop-opacity="0"/>
<stop offset="1" stop-color="#FFCCD5"/>
</linearGradient>
<linearGradient id="paint2_linear_6610_4916" x1="148.72" y1="529.067" x2="148.72" y2="290.022" gradientUnits="userSpaceOnUse">
<stop stop-color="#FFCCD5" stop-opacity="0"/>
<stop offset="1" stop-color="#FFCCD5"/>
</linearGradient>
<linearGradient id="paint3_linear_6610_4916" x1="243.521" y1="566.285" x2="243.521" y2="337.513" gradientUnits="userSpaceOnUse">
<stop stop-color="#FFCCD5" stop-opacity="0"/>
<stop offset="1" stop-color="#FFCCD5"/>
</linearGradient>
<linearGradient id="paint4_linear_6610_4916" x1="330.394" y1="603.218" x2="330.394" y2="383.965" gradientUnits="userSpaceOnUse">
<stop stop-color="#FFCCD5" stop-opacity="0"/>
<stop offset="1" stop-color="#FFCCD5"/>
</linearGradient>
<linearGradient id="paint5_linear_6610_4916" x1="432.951" y1="581.647" x2="432.951" y2="405.578" gradientUnits="userSpaceOnUse">
<stop stop-color="#FFCCD5" stop-opacity="0"/>
<stop offset="1" stop-color="#FFCCD5"/>
</linearGradient>
<linearGradient id="paint6_linear_6610_4916" x1="1080.28" y1="556.236" x2="1080.28" y2="233.623" gradientUnits="userSpaceOnUse">
<stop stop-color="#FFCCD5" stop-opacity="0"/>
<stop offset="1" stop-color="#FFCCD5"/>
</linearGradient>
<linearGradient id="paint7_linear_6610_4916" x1="1020.97" y1="552.088" x2="1020.97" y2="200.032" gradientUnits="userSpaceOnUse">
<stop stop-color="#FFCCD5" stop-opacity="0"/>
<stop offset="1" stop-color="#FFCCD5"/>
</linearGradient>
<linearGradient id="paint8_linear_6610_4916" x1="940.633" y1="530.019" x2="940.633" y2="275.164" gradientUnits="userSpaceOnUse">
<stop stop-color="#FFCCD5" stop-opacity="0"/>
<stop offset="1" stop-color="#FFCCD5"/>
</linearGradient>
<linearGradient id="paint9_linear_6610_4916" x1="839.359" y1="569.278" x2="839.359" y2="325.389" gradientUnits="userSpaceOnUse">
<stop stop-color="#FFCCD5" stop-opacity="0"/>
<stop offset="1" stop-color="#FFCCD5"/>
</linearGradient>
<linearGradient id="paint10_linear_6610_4916" x1="746.567" y1="608.285" x2="746.567" y2="374.506" gradientUnits="userSpaceOnUse">
<stop stop-color="#FFCCD5" stop-opacity="0"/>
<stop offset="1" stop-color="#FFCCD5"/>
</linearGradient>
<linearGradient id="paint11_linear_6610_4916" x1="637.201" y1="584.847" x2="637.201" y2="397.111" gradientUnits="userSpaceOnUse">
<stop stop-color="#FFCCD5" stop-opacity="0"/>
<stop offset="1" stop-color="#FFCCD5"/>
</linearGradient>
<linearGradient id="paint12_linear_6610_4916" x1="8.86153" y1="4.51598" x2="115.071" y2="293.084" gradientUnits="userSpaceOnUse">
<stop stop-color="#292929"/>
<stop offset="1" stop-color="#292929" stop-opacity="0"/>
</linearGradient>
<clipPath id="clip0_6610_4916">
<rect width="1152" height="424" fill="white"/>
</clipPath>
<clipPath id="clip1_6610_4916">
<rect width="1152" height="256" fill="white"/>
</clipPath>
<clipPath id="clip2_6610_4916">
<rect width="1152" height="409" fill="white" transform="translate(0 200)"/>
</clipPath>
</defs>
</svg>
