<svg xmlns="http://www.w3.org/2000/svg" width="40" height="40" viewBox="0 0 40 40" fill="none">
  <path d="M19.5049 10.0019C19.5399 10.0016 19.575 10.0014 19.6111 10.0011C19.7236 10.0004 19.8361 10.0001 19.9486 10.0001C19.9871 10.0001 20.0256 10 20.0652 10C20.6295 10.0006 21.1777 10.0179 21.7329 10.1266C21.7685 10.1331 21.804 10.1396 21.8407 10.1463C23.2457 10.4048 24.5809 10.9738 25.7445 11.8012C25.7693 11.8187 25.7942 11.8362 25.8198 11.8542C26.2432 12.154 26.6201 12.4906 26.9908 12.8527C27.0343 12.8947 27.0779 12.9366 27.1215 12.9786C27.37 13.2204 27.595 13.4751 27.8087 13.7484C27.8385 13.7849 27.8683 13.8214 27.899 13.859C28.9052 15.1158 29.5467 16.6504 29.8339 18.2268C29.8403 18.2594 29.8467 18.2919 29.8532 18.3255C30.0594 19.405 30.0442 20.6545 29.8339 21.7317C29.8276 21.7667 29.8214 21.8016 29.8149 21.8376C29.537 23.3731 28.8845 24.8247 27.9255 26.0544C27.8993 26.0889 27.8731 26.1233 27.8461 26.1588C27.3747 26.7659 26.8178 27.335 26.2118 27.8069C26.1754 27.8367 26.1389 27.8664 26.1014 27.8971C24.8446 28.9034 23.3095 29.5448 21.7329 29.8319C21.7004 29.8383 21.6678 29.8447 21.6343 29.8513C20.5591 30.0565 19.3 30.0486 18.2277 29.8319C18.1917 29.8248 18.1558 29.8177 18.1187 29.8104C17.6529 29.7164 17.1968 29.5976 16.7477 29.4425C16.7185 29.4326 16.6894 29.4226 16.6593 29.4124C16.2157 29.2599 15.7984 29.0786 15.3845 28.8584C15.3378 28.8339 15.291 28.8094 15.2443 28.7849C15.0599 28.6872 14.8825 28.5903 14.7127 28.4689C14.5455 28.3651 14.4024 28.3914 14.2161 28.43C14.0195 28.4841 13.8262 28.5475 13.6327 28.6116C13.5758 28.6301 13.519 28.6486 13.4622 28.6671C13.3128 28.7158 13.1635 28.7648 13.0143 28.8139C12.8654 28.8629 12.7163 28.9115 12.5673 28.9601C12.394 29.0167 12.2206 29.0733 12.0473 29.13C11.7183 29.2377 11.3891 29.3451 11.0594 29.4507C11.0244 29.462 10.9894 29.4733 10.9533 29.485C10.72 29.5593 10.72 29.5593 10.633 29.5593C10.7197 29.2207 10.8275 28.8907 10.9404 28.56C10.9589 28.5056 10.9774 28.4511 10.9959 28.3967C11.0443 28.2541 11.0928 28.1115 11.1414 27.969C11.1901 27.8261 11.2387 27.6831 11.2872 27.5401C11.2967 27.5123 11.3062 27.4845 11.3159 27.4558C11.3625 27.3186 11.4091 27.1814 11.4556 27.0442C11.4733 26.9919 11.491 26.9396 11.5088 26.8873C11.5173 26.8623 11.5257 26.8372 11.5345 26.8114C11.5847 26.6636 11.6357 26.5161 11.6873 26.3687C11.6987 26.3359 11.7101 26.303 11.7218 26.2691C11.7418 26.2114 11.7622 26.1537 11.7829 26.0963C11.8279 25.9651 11.8584 25.8731 11.8014 25.7429C11.7637 25.6729 11.7637 25.6729 11.7162 25.6048C11.6901 25.5655 11.6901 25.5655 11.6634 25.5255C11.6447 25.4977 11.626 25.4698 11.6066 25.4411C10.6462 23.981 10.0111 22.2203 10.0019 20.4585C10.0016 20.4234 10.0014 20.3882 10.0011 20.352C10.0004 20.2391 10.0001 20.1263 10.0001 20.0134C10.0001 19.9748 10 19.9363 10 19.8966C10.0006 19.3315 10.0181 18.7829 10.1267 18.2268C10.1361 18.1744 10.1361 18.1744 10.1457 18.121C10.4235 16.5859 11.0758 15.1333 12.0351 13.9041C12.0617 13.8693 12.0884 13.8344 12.1159 13.7984C12.321 13.535 12.5449 13.2889 12.7751 13.0474C12.7973 13.024 12.8196 13.0006 12.8425 12.9765C13.1544 12.6514 13.4747 12.3537 13.8369 12.0854C13.9039 12.0353 13.9698 11.9841 14.0357 11.9325C14.6932 11.4247 15.4326 11.0203 16.2024 10.7108C16.236 10.6973 16.2696 10.6837 16.3042 10.6698C17.318 10.268 18.4103 10.0076 19.5049 10.0019ZM15.4624 14.7609C15.4231 14.783 15.4231 14.783 15.383 14.8055C14.7228 15.2407 14.3885 16.0334 14.2325 16.7764C14.0667 18.0524 14.5834 19.2305 15.3066 20.2519C15.3363 20.2939 15.3363 20.2939 15.3665 20.3368C15.7487 20.8774 16.1435 21.3998 16.5919 21.8875C16.6375 21.9393 16.683 21.9912 16.7282 22.0433C16.7736 22.0952 16.8191 22.1471 16.8645 22.1991C16.8922 22.2308 16.9198 22.2626 16.9483 22.2954C17.104 22.4718 17.261 22.6361 17.4411 22.7876C17.5433 22.8755 17.6404 22.9681 17.7384 23.0607C19.1482 24.3663 21.3933 25.5788 23.3582 25.5565C24.1549 25.5042 24.9713 25.1264 25.5108 24.5357C25.8627 24.0772 25.9813 23.4865 25.9923 22.9198C25.9736 22.7909 25.9439 22.7294 25.8613 22.6274C25.7586 22.5567 25.6493 22.5024 25.5376 22.4473C25.5049 22.4307 25.4723 22.4141 25.4386 22.397C25.3688 22.3617 25.2989 22.3266 25.2289 22.2917C25.1229 22.2388 25.0174 22.1851 24.912 22.1312C24.5451 21.9445 24.1752 21.7642 23.802 21.5906C23.767 21.574 23.7321 21.5574 23.6961 21.5403C23.4616 21.4328 23.2378 21.3399 22.9792 21.4153C22.7032 21.6108 22.515 21.8939 22.32 22.1659C22.2351 22.2826 22.1484 22.3972 22.0591 22.5106C22.0186 22.5624 22.0186 22.5624 21.9772 22.6153C21.83 22.765 21.7102 22.8175 21.5009 22.8351C20.3859 22.7878 19.1017 21.6129 18.3719 20.8695C18.2372 20.7225 18.1156 20.5655 17.994 20.4077C17.9658 20.3715 17.9377 20.3353 17.9086 20.298C17.1864 19.3548 17.1864 19.3548 17.1985 19.0106C17.2535 18.7357 17.5347 18.5223 17.7193 18.3247C17.9241 18.103 18.1355 17.8685 18.1592 17.5573C18.1485 17.3891 18.1018 17.2546 18.037 17.1014C18.0252 17.0725 18.0134 17.0435 18.0012 17.0136C17.9628 16.9197 17.9236 16.826 17.8844 16.7324C17.8577 16.6676 17.8309 16.6028 17.8042 16.538C17.7255 16.3477 17.6457 16.1578 17.5656 15.9681C17.5542 15.9413 17.5429 15.9145 17.5313 15.8869C17.464 15.7278 17.3959 15.5692 17.327 15.4108C17.3105 15.3726 17.294 15.3344 17.277 15.295C17.1248 14.9182 17.1248 14.9182 16.8587 14.6255C16.4164 14.5443 15.8599 14.5335 15.4624 14.7609Z" fill="black"/>
</svg>